<?xml version="1.0" encoding="UTF-8"?>
<svg version="1.1" xmlns="http://www.w3.org/2000/svg" width="316" height="261">
<path d="M0 0 C104.28 0 208.56 0 316 0 C316 86.13 316 172.26 316 261 C211.72 261 107.44 261 0 261 C0 174.87 0 88.74 0 0 Z " fill="#B5BFC5" transform="translate(0,0)"/>
<path d="M0 0 C4.12444805 -0.17625846 8.24791183 -0.28150609 12.375 -0.375 C13.53128906 -0.42527344 14.68757812 -0.47554687 15.87890625 -0.52734375 C23.95948884 -0.66430278 29.79559508 0.58859394 36 6 C42.01172846 14.24305995 42.64668115 21.9823211 42 32 C40.83697701 38.19057907 38.49280877 42.61167516 34 47 C28.9 50 28.9 50 26 50 C26 50.66 26 51.32 26 52 C27.299375 52.0928125 27.299375 52.0928125 28.625 52.1875 C34.2577211 53.54352545 36.95974293 56.51472321 40.1640625 61.08984375 C43.45275685 67.91306509 42.41151682 76.10374841 42.25 83.5 C42.22990783 85.10154021 42.21166185 86.70310471 42.1953125 88.3046875 C42.15152271 92.20373081 42.08264721 96.10159466 42 100 C44.99647134 99.3262405 44.99647134 99.3262405 46.125 97.4375 C47.36492259 93.98342993 47.63491457 90.65085434 48 87 C48.66 87 49.32 87 50 87 C50.37695208 91.71190102 50.46314703 95.07370593 48.3125 99.375 C44.88451252 103.26622904 42.19461876 105.1289558 37 105.5 C33.54744027 105.37599502 32.97344299 104.97909342 30.0625 102.6875 C27.46065965 99.29722318 26.87993774 96.86553871 26.79467773 92.7121582 C26.77473251 91.85149246 26.75478729 90.99082672 26.73423767 90.1040802 C26.71752518 89.17899155 26.70081268 88.25390289 26.68359375 87.30078125 C26.66281265 86.35059616 26.64203156 85.40041107 26.62062073 84.4214325 C26.55521948 81.38519544 26.49628396 78.34887169 26.4375 75.3125 C26.39430583 73.25454831 26.35069124 71.19660541 26.30664062 69.13867188 C26.19954769 64.09253684 26.09825354 59.04631457 26 54 C23.69 53.34 21.38 52.68 19 52 C19 68.5 19 85 19 102 C20.32 102 21.64 102 23 102 C23 102.66 23 103.32 23 104 C15.41 104 7.82 104 0 104 C0 103.34 0 102.68 0 102 C1.65 102 3.3 102 5 102 C5 69 5 36 5 2 C3.35 2 1.7 2 0 2 C0 1.34 0 0.68 0 0 Z " fill="#262324" transform="translate(233,136)"/>
<path d="M0 0 C0.33 0 0.66 0 1 0 C1 9.24 1 18.48 1 28 C2.65 27.67 4.3 27.34 6 27 C6.22171875 27.66 6.4434375 28.32 6.671875 29 C9.52327951 36.93434298 13.10678838 44.31108048 16.9375 51.8125 C31.4004613 80.4360072 31.4004613 80.4360072 29 95 C27.67472125 98.13002826 26.82920608 98.92524888 24 101 C21.5 101.6875 21.5 101.6875 19 101 C11.82310231 96.15559406 9.5778699 86.1032283 7.6875 78.0625 C6.57384229 71.76565035 6.83480733 65.36909531 7 59 C6.34 59 5.68 59 5 59 C5 73.52 5 88.04 5 103 C4.67 103 4.34 103 4 103 C3.505 93.595 3.505 93.595 3 84 C1.48578999 85.51421001 1.78690144 86.92472768 1.68359375 89.03515625 C1.64169922 89.84404297 1.59980469 90.65292969 1.55664062 91.48632812 C1.51732422 92.33646484 1.47800781 93.18660156 1.4375 94.0625 C1.39431641 94.91650391 1.35113281 95.77050781 1.30664062 96.65039062 C1.20023298 98.76672037 1.09958269 100.88333813 1 103 C0.67 103 0.34 103 0 103 C0 88.81 0 74.62 0 60 C-0.66 60 -1.32 60 -2 60 C-1.94779297 61.16402344 -1.94779297 61.16402344 -1.89453125 62.3515625 C-1.5943857 74.32879924 -2.98070371 86.90483231 -10 97 C-13.15615713 100.12361943 -15.46189693 101 -20 101 C-20 84.83 -20 68.66 -20 52 C-15 53 -15 53 -13.63671875 54.5390625 C-10.28187578 61.91143347 -10.62339138 69.05983501 -11 77 C-10.34 77 -9.68 77 -9 77 C-9 59.51 -9 42.02 -9 24 C-9.66 24 -10.32 24 -11 24 C-10.95359375 24.99 -10.9071875 25.98 -10.859375 27 C-10.61096136 34.51998523 -10.41201393 40.6760192 -15 47 C-16.65 47.66 -18.3 48.32 -20 49 C-20 33.16 -20 17.32 -20 1 C-13 1 -13 1 -10.7265625 2.64453125 C-3.60331224 12.3624496 -2.16238163 24.37618371 -1 36 C-0.67 24.12 -0.34 12.24 0 0 Z " fill="#B0BABF" transform="translate(78,137)"/>
<path d="M0 0 C3.47900249 -0.08825361 6.95771117 -0.14080635 10.4375 -0.1875 C11.41138672 -0.21263672 12.38527344 -0.23777344 13.38867188 -0.26367188 C20.95368295 -0.339575 27.13848482 0.80595729 33.75 4.5625 C42.286566 13.8104465 42.56219473 25.11605967 42.13623047 37.01660156 C41.66572642 43.86673577 38.73261214 50.04935424 34 55 C28.80771383 59.29093576 26.29752516 59 19 59 C19 73.19 19 87.38 19 102 C20.65 102 22.3 102 24 102 C24 102.66 24 103.32 24 104 C16.08 104 8.16 104 0 104 C0 103.34 0 102.68 0 102 C1.65 102 3.3 102 5 102 C5 69 5 36 5 2 C3.35 2 1.7 2 0 2 C0 1.34 0 0.68 0 0 Z " fill="#221E21" transform="translate(123,136)"/>
<path d="M0 0 C1.99956611 0.04165763 4.00043389 0.04165763 6 0 C8.66666667 0 11.33333333 0 14 0 C14 0.66 14 1.32 14 2 C14.66 2 15.32 2 16 2 C16.33 1.01 16.66 0.02 17 -1 C17.99 -0.01 17.99 -0.01 19 1 C21.07220839 1.31128861 21.07220839 1.31128861 23.375 1.375 C26.81945286 1.66897102 27.77118541 1.81583216 30.5625 4.0625 C31.036875 4.701875 31.51125 5.34125 32 6 C31.34 6 30.68 6 30 6 C30 6.66 30 7.32 30 8 C31.65 8.33 33.3 8.66 35 9 C35 9.33 35 9.66 35 10 C32.69 9.67 30.38 9.34 28 9 C28 9.99 28 10.98 28 12 C27.030625 12.12375 26.06125 12.2475 25.0625 12.375 C23.5465625 12.684375 23.5465625 12.684375 22 13 C21.67 13.66 21.34 14.32 21 15 C19.02 15 17.04 15 15 15 C15.10613836 17.45224694 15.10613836 17.45224694 16 20 C18.47636012 21.37466625 18.47636012 21.37466625 21 22 C20.9375 23.8125 20.9375 23.8125 20 26 C17.70401807 27.08301035 15.36522558 28.07796291 13 29 C11.948125 29.86625 11.948125 29.86625 10.875 30.75 C9 32 9 32 6.25 31.6875 C5.5075 31.460625 4.765 31.23375 4 31 C4 29.68 4 28.36 4 27 C6.64 27 9.28 27 12 27 C11.505 26.05125 11.01 25.1025 10.5 24.125 C9 21 9 21 9 19 C7.02 19 5.04 19 3 19 C3 17.68 3 16.36 3 15 C4.32 15 5.64 15 7 15 C7 13.35 7 11.7 7 10 C5.02 10.33 3.04 10.66 1 11 C1 11.66 1 12.32 1 13 C-0.98 13.33 -2.96 13.66 -5 14 C-5 14.66 -5 15.32 -5 16 C-4.01 15.67 -3.02 15.34 -2 15 C-2 15.66 -2 16.32 -2 17 C-2.99 17 -3.98 17 -5 17 C-5 17.66 -5 18.32 -5 19 C-3.68 19.66 -2.36 20.32 -1 21 C-1 21.99 -1 22.98 -1 24 C-3.31 24 -5.62 24 -8 24 C-8.53625 25.134375 -9.0725 26.26875 -9.625 27.4375 C-11.36742851 30.54629332 -11.62276269 30.89118154 -15.25 31.9375 C-16.1575 31.958125 -17.065 31.97875 -18 32 C-18.6875 30.3125 -18.6875 30.3125 -19 28 C-18.03114628 26.31503702 -17.03013277 24.64821244 -16 23 C-16 21.68 -16 20.36 -16 19 C-19.17888155 19.7360447 -19.17888155 19.7360447 -20.8125 22.5 C-23.47594217 25.54393391 -25.05278869 25.73087196 -29 26 C-29.165 25.360625 -29.33 24.72125 -29.5 24.0625 C-30.781786 21.83880759 -30.781786 21.83880759 -32.9140625 21.51171875 C-34.93575155 21.2724022 -36.96841939 21.13106972 -39 21 C-39.495 19.515 -39.495 19.515 -40 18 C-41.32 18.66 -42.64 19.32 -44 20 C-43.01 21.485 -43.01 21.485 -42 23 C-42.99 23 -43.98 23 -45 23 C-44.34 23.33 -43.68 23.66 -43 24 C-43.33 25.32 -43.66 26.64 -44 28 C-46.31 28 -48.62 28 -51 28 C-51.495 26.515 -51.495 26.515 -52 25 C-53.98 25 -55.96 25 -58 25 C-58.495 24.01 -58.495 24.01 -59 23 C-63.23084903 24.68807908 -63.23084903 24.68807908 -66 28 C-65.4225 28.144375 -64.845 28.28875 -64.25 28.4375 C-63.5075 28.623125 -62.765 28.80875 -62 29 C-60.9790625 29.2165625 -60.9790625 29.2165625 -59.9375 29.4375 C-58 30 -58 30 -55 32 C-55.3125 33.875 -55.3125 33.875 -56 36 C-56.99 36.66 -57.98 37.32 -59 38 C-59.39171753 39.65391846 -59.72057545 41.32345271 -60 43 C-61.0625 45.3125 -61.0625 45.3125 -62 47 C-61.01 47 -60.02 47 -59 47 C-58.957279 48.66611905 -58.95936168 50.33382885 -59 52 C-60 53 -60 53 -63.5625 53.0625 C-64.696875 53.041875 -65.83125 53.02125 -67 53 C-67.625 51.1875 -67.625 51.1875 -68 49 C-67.34 48.01 -66.68 47.02 -66 46 C-68.64 46.33 -71.28 46.66 -74 47 C-73.67 45.02 -73.34 43.04 -73 41 C-73.763125 41.33 -74.52625 41.66 -75.3125 42 C-78 43 -78 43 -81 43 C-81 41.68 -81 40.36 -81 39 C-83.64 39 -86.28 39 -89 39 C-89 38.34 -89 37.68 -89 37 C-89.66 37 -90.32 37 -91 37 C-91.33 36.34 -91.66 35.68 -92 35 C-93.485 35.495 -93.485 35.495 -95 36 C-95.66 36 -96.32 36 -97 36 C-97.99 36.495 -97.99 36.495 -99 37 C-99 38.32 -99 39.64 -99 41 C-98.01 41 -97.02 41 -96 41 C-96.8125 42.9375 -96.8125 42.9375 -98 45 C-99.485 45.495 -99.485 45.495 -101 46 C-101 45.01 -101 44.02 -101 43 C-102.32 43 -103.64 43 -105 43 C-105.99 42.67 -106.98 42.34 -108 42 C-106.6875 40 -106.6875 40 -105 38 C-104.01 38 -103.02 38 -102 38 C-101.773125 37.401875 -101.54625 36.80375 -101.3125 36.1875 C-99.26733959 32.77889932 -96.43383827 31.42627624 -92.6875 30.3125 C-92.130625 30.209375 -91.57375 30.10625 -91 30 C-91 29.01 -91 28.02 -91 27 C-85.25794827 23.71882759 -81.30192303 23.3661681 -75 25 C-74.505 24.505 -74.505 24.505 -74 24 C-75.32 24 -76.64 24 -78 24 C-78 22 -78 22 -77 21 C-77.99 20.67 -78.98 20.34 -80 20 C-78.4188708 19.49307308 -76.83498617 18.99473557 -75.25 18.5 C-73.92742187 18.08234375 -73.92742187 18.08234375 -72.578125 17.65625 C-70 17 -70 17 -66 17 C-67.32 16.67 -68.64 16.34 -70 16 C-69.67 14.68 -69.34 13.36 -69 12 C-69 12.66 -69 13.32 -69 14 C-66.36 13.67 -63.72 13.34 -61 13 C-61 12.01 -61 11.02 -61 10 C-60.25234375 9.87882812 -59.5046875 9.75765625 -58.734375 9.6328125 C-57.25710937 9.38144531 -57.25710937 9.38144531 -55.75 9.125 C-54.77546875 8.96257813 -53.8009375 8.80015625 -52.796875 8.6328125 C-50.20186265 8.04567283 -48.31501773 7.26857048 -46 6 C-40.45283019 3.8490566 -40.45283019 3.8490566 -37 5 C-37 4.34 -37 3.68 -37 3 C-34.525 2.505 -34.525 2.505 -32 2 C-32 2.66 -32 3.32 -32 4 C-30.02 4 -28.04 4 -26 4 C-27.65 3.67 -29.3 3.34 -31 3 C-27.88089144 1.20724134 -25.32317572 0.65709282 -21.75 0.375 C-20.85796875 0.30023437 -19.9659375 0.22546875 -19.046875 0.1484375 C-18.37140625 0.09945313 -17.6959375 0.05046875 -17 0 C-17.33 0.99 -17.66 1.98 -18 3 C-17.01 2.67 -16.02 2.34 -15 2 C-15 1.34 -15 0.68 -15 0 C-4.21052632 -2.10526316 -4.21052632 -2.10526316 0 0 Z " fill="#A8B1B8" transform="translate(167,22)"/>
<path d="M0 0 C13.2 0 26.4 0 40 0 C40 12.87 40 25.74 40 39 C37.21926131 36.21926131 37.55450061 34.13778664 37.1875 30.25 C36.14689661 20.86973632 33.22860594 12.45721188 29 4 C26.03 3.34 23.06 2.68 20 2 C20 17.84 20 33.68 20 50 C25.03874297 47.12957597 25.03874297 47.12957597 27.44140625 42.44921875 C28.7383567 36.76258985 28.78303471 30.81317359 29 25 C29.66 25 30.32 25 31 25 C31 42.49 31 59.98 31 78 C30.34 78 29.68 78 29 78 C28.97421875 77.02160156 28.9484375 76.04320312 28.921875 75.03515625 C28.66721727 63.87132062 28.66721727 63.87132062 24 54 C22.68 53.67 21.36 53.34 20 53 C20 69.17 20 85.34 20 102 C27.38148217 99.8695518 27.38148217 99.8695518 30.8125 94.875 C31.16957031 94.17117187 31.52664062 93.46734375 31.89453125 92.7421875 C34.90080716 85.28492358 36.54541785 78.46647219 37.1875 70.4375 C37.26935547 69.52419922 37.35121094 68.61089844 37.43554688 67.66992188 C37.63337481 65.44726687 37.82135324 63.22426445 38 61 C38.66 61 39.32 61 40 61 C40 75.19 40 89.38 40 104 C26.8 104 13.6 104 0 104 C0 103.34 0 102.68 0 102 C1.98 102 3.96 102 6 102 C6 69 6 36 6 2 C4.02 2 2.04 2 0 2 C0 1.34 0 0.68 0 0 Z " fill="#242123" transform="translate(38,136)"/>
<path d="M0 0 C1.678298 1.31866272 3.34614767 2.65080468 5 4 C8.07183561 3.92686106 9.43090078 3.52694373 11.6875 1.4375 C12.120625 0.963125 12.55375 0.48875 13 0 C13.66 0 14.32 0 15 0 C15 13.2 15 26.4 15 40 C14.34 40 13.68 40 13 40 C11.66355537 35.79974544 10.77299822 31.73741656 10.125 27.375 C8.26916596 14.34574934 8.26916596 14.34574934 1 4 C-1.54290625 3.41649495 -1.54290625 3.41649495 -4 4 C-6.12814495 5.61820708 -6.90883098 6.5123914 -7.4050293 9.16625977 C-7.35867787 15.40021741 -6.2790502 20.23506655 -3.8125 25.9375 C-3.29586792 27.18648071 -3.29586792 27.18648071 -2.76879883 28.46069336 C0.96214419 37.28810614 5.2061945 45.89129446 9.51831055 54.44702148 C14.35355663 64.18647452 17.54376273 73.24243842 17.4375 84.1875 C17.4674707 85.3002832 17.4674707 85.3002832 17.49804688 86.43554688 C17.49312501 92.0612363 16.13522063 96.31196757 13 101 C9.60513828 104.35986314 6.07612262 105.85156929 1.375 106.5 C-3.28992393 105.80890016 -6.65665095 104.34334905 -10 101 C-13.35760202 101.32492923 -14.73637648 102.6334845 -17 105 C-17.66 105 -18.32 105 -19 105 C-19 90.48 -19 75.96 -19 61 C-18.34 61 -17.68 61 -17 61 C-16.90203125 62.29292969 -16.8040625 63.58585937 -16.703125 64.91796875 C-15.68477008 77.1700882 -14.45808062 88.27333048 -8 99 C-8 99.66 -8 100.32 -8 101 C-6.7625 101.268125 -5.525 101.53625 -4.25 101.8125 C-3.20585938 102.03873047 -3.20585938 102.03873047 -2.140625 102.26953125 C0.23807767 102.18116958 0.23807767 102.18116958 2.2265625 99.9375 C6.08388543 93.54827788 4.83090085 85.36714407 3.10546875 78.375 C-0.42414169 68.308679 -5.42930209 58.85498175 -10.32885742 49.39916992 C-16.87324591 36.68953887 -20.70088408 26.5454813 -18.375 12.125 C-14.73100077 3.84318357 -9.33301312 -0.98242243 0 0 Z " fill="#232022" transform="translate(102,135)"/>
<path d="M0 0 C2.64 0 5.28 0 8 0 C8.10831146 0.916604 8.21662292 1.83320801 8.32821655 2.77758789 C9.35718978 11.4846264 10.38668356 20.19160318 11.41673851 28.89851379 C11.94607401 33.37306474 12.47521958 37.84763797 13.00390625 42.32226562 C13.51567118 46.65360982 14.02796745 50.98489089 14.54060745 55.31613159 C14.73451662 56.9552087 14.92824547 58.59430716 15.12177658 60.23342896 C15.39627503 62.5580227 15.67148886 64.88253095 15.94677734 67.20703125 C16.07727509 68.31486717 16.07727509 68.31486717 16.21040916 69.44508362 C16.64393408 73.10258577 17.09493619 76.75658831 17.57940674 80.40771484 C17.67269068 81.119655 17.76597462 81.83159515 17.86208534 82.56510925 C18.1167871 84.49667334 18.37745121 86.42744862 18.63858032 88.3581543 C19.02812206 92.28337193 19.06017895 96.05856753 19 100 C20.32 100 21.64 100 23 100 C23 100.66 23 101.32 23 102 C15.74 102 8.48 102 1 102 C1 101.34 1 100.68 1 100 C2.32 100 3.64 100 5 100 C4.7525 98.63875 4.7525 98.63875 4.5 97.25 C3.7101827 91.85476913 3.93887953 86.43972178 4 81 C-0.29 81 -4.58 81 -9 81 C-9.02690844 83.62506802 -9.04679404 86.24986173 -9.0625 88.875 C-9.07087891 89.62136719 -9.07925781 90.36773437 -9.08789062 91.13671875 C-9.20688084 95.19845578 -9.20688084 95.19845578 -8 99 C-7.01 99.33 -6.02 99.66 -5 100 C-5 100.66 -5 101.32 -5 102 C-9.29 102 -13.58 102 -18 102 C-18 101.34 -18 100.68 -18 100 C-16.02 99.505 -16.02 99.505 -14 99 C-12.61659384 93.22186074 -11.58726721 87.52679871 -10.95703125 81.62109375 C-10.77201797 79.98287744 -10.58670078 78.34469543 -10.40112305 76.70654297 C-10.30552094 75.84881287 -10.20991882 74.99108276 -10.11141968 74.10736084 C-7.33601245 49.31825653 -3.71442456 24.66300623 0 0 Z " fill="#232022" transform="translate(180,138)"/>
<path d="M0 0 C7.59 0 15.18 0 23 0 C23 0.66 23 1.32 23 2 C21.35 2 19.7 2 18 2 C18 35 18 68 18 102 C19.65 102 21.3 102 23 102 C23 102.66 23 103.32 23 104 C15.08 104 7.16 104 -1 104 C-1 103.34 -1 102.68 -1 102 C0.65 102 2.3 102 4 102 C4 69 4 36 4 2 C2.68 2 1.36 2 0 2 C0 1.34 0 0.68 0 0 Z " fill="#252224" transform="translate(207,136)"/>
<path d="M0 0 C4.12444805 -0.17625846 8.24791183 -0.28150609 12.375 -0.375 C13.53128906 -0.42527344 14.68757812 -0.47554687 15.87890625 -0.52734375 C23.95948884 -0.66430278 29.79559508 0.58859394 36 6 C42.01172846 14.24305995 42.64668115 21.9823211 42 32 C40.85492747 38.09503171 38.58481738 42.71419245 34 47 C28.36099185 50.43969074 25.75818167 51.12636361 19 50 C19 34.16 19 18.32 19 2 C12.73 1.67 6.46 1.34 0 1 C0 0.67 0 0.34 0 0 Z " fill="#292729" transform="translate(233,136)"/>
<path d="M0 0 C1.99956611 0.04165763 4.00043389 0.04165763 6 0 C8.66666667 0 11.33333333 0 14 0 C14 0.66 14 1.32 14 2 C14.66 2 15.32 2 16 2 C16.33 1.01 16.66 0.02 17 -1 C17.66 -0.34 18.32 0.32 19 1 C21.07220839 1.31128861 21.07220839 1.31128861 23.375 1.375 C26.81945286 1.66897102 27.77118541 1.81583216 30.5625 4.0625 C31.036875 4.701875 31.51125 5.34125 32 6 C31.34 6 30.68 6 30 6 C30 6.66 30 7.32 30 8 C32.475 8.495 32.475 8.495 35 9 C35 9.33 35 9.66 35 10 C32.69 9.67 30.38 9.34 28 9 C28 9.99 28 10.98 28 12 C27.030625 12.12375 26.06125 12.2475 25.0625 12.375 C24.051875 12.58125 23.04125 12.7875 22 13 C21.67 13.66 21.34 14.32 21 15 C19.02 15 17.04 15 15 15 C15.10613836 17.45224694 15.10613836 17.45224694 16 20 C18.47636012 21.37466625 18.47636012 21.37466625 21 22 C20.9375 23.8125 20.9375 23.8125 20 26 C17.70401807 27.08301035 15.36522558 28.07796291 13 29 C12.29875 29.5775 11.5975 30.155 10.875 30.75 C9 32 9 32 6.25 31.6875 C5.5075 31.460625 4.765 31.23375 4 31 C4 29.68 4 28.36 4 27 C6.64 27 9.28 27 12 27 C11.505 26.05125 11.01 25.1025 10.5 24.125 C9 21 9 21 9 19 C7.02 19 5.04 19 3 19 C3 17.68 3 16.36 3 15 C4.32 15 5.64 15 7 15 C7 13.35 7 11.7 7 10 C5.02 10.33 3.04 10.66 1 11 C1 11.66 1 12.32 1 13 C-0.98 13.33 -2.96 13.66 -5 14 C-5 14.66 -5 15.32 -5 16 C-4.01 15.67 -3.02 15.34 -2 15 C-2 15.66 -2 16.32 -2 17 C-2.99 17 -3.98 17 -5 17 C-5 17.66 -5 18.32 -5 19 C-3.68 19.66 -2.36 20.32 -1 21 C-1 21.99 -1 22.98 -1 24 C-3.31 24 -5.62 24 -8 24 C-8.53625 25.134375 -9.0725 26.26875 -9.625 27.4375 C-11.36742851 30.54629332 -11.62276269 30.89118154 -15.25 31.9375 C-16.1575 31.958125 -17.065 31.97875 -18 32 C-18.6875 30.3125 -18.6875 30.3125 -19 28 C-18.03114628 26.31503702 -17.03013277 24.64821244 -16 23 C-16 21.68 -16 20.36 -16 19 C-16.99 18.67 -17.98 18.34 -19 18 C-17.875 16.4375 -17.875 16.4375 -16 15 C-12.8125 15.3125 -12.8125 15.3125 -10 16 C-12.0140476 12.9789286 -13.63279613 11.39332574 -17 10 C-17 9.34 -17 8.68 -17 8 C-15.35 7.34 -13.7 6.68 -12 6 C-13.32 5.67 -14.64 5.34 -16 5 C-15.67 3.35 -15.34 1.7 -15 0 C-4.21052632 -2.10526316 -4.21052632 -2.10526316 0 0 Z " fill="#A9B3B9" transform="translate(167,22)"/>
<path d="M0 0 C3.22594495 1.35901511 4.78891614 2.65172872 6.625 5.625 C7.23214844 6.57246094 7.23214844 6.57246094 7.8515625 7.5390625 C10.71230722 13.66922976 11.36482726 19.77146189 11.3125 26.4375 C11.30758545 27.18177246 11.3026709 27.92604492 11.29760742 28.69287109 C11.11500316 37.25747897 9.07143407 44.68309016 3 51 C-1.08905306 54.236768 -4.74866206 55.51232565 -10 55 C-8.7934375 54.071875 -8.7934375 54.071875 -7.5625 53.125 C-4.96125481 51.25835959 -4.96125481 51.25835959 -4 49 C-3.88273341 47.61182327 -3.82318594 46.21851286 -3.79467773 44.82568359 C-3.77473251 43.96494232 -3.75478729 43.10420105 -3.73423767 42.21737671 C-3.71752518 41.28712677 -3.70081268 40.35687683 -3.68359375 39.3984375 C-3.66281265 38.44683746 -3.64203156 37.49523743 -3.62062073 36.51480103 C-3.55511867 33.46827568 -3.4962372 30.42166257 -3.4375 27.375 C-3.39431541 25.31249084 -3.35070114 23.24999063 -3.30664062 21.1875 C-3.1994366 16.12509046 -3.09817098 11.06259245 -3 6 C-2.34 5.67 -1.68 5.34 -1 5 C-0.34444881 2.47266765 -0.34444881 2.47266765 0 0 Z " fill="#211F21" transform="translate(154,140)"/>
<path d="M0 0 C4.79642058 2.39821029 7.60178971 5.20357942 10 10 C10.70938379 14.96568654 10.55443248 17.69873987 7.75 21.875 C5.25240556 25.18970867 2.7680973 26.7490819 -1.3671875 27.3359375 C-7.09465733 27.42515043 -10.56447399 27.00279176 -15 23 C-17.88540214 19.53751744 -18.54347226 16.50907693 -18.34765625 11.98828125 C-17.53049935 7.31487831 -14.71425872 4.61685981 -11.25 1.625 C-7.26245631 -0.36877185 -4.37028828 -0.8565765 0 0 Z " fill="#9FA4A8" transform="translate(285,105)"/>
<path d="M0 0 C-0.33 0.99 -0.66 1.98 -1 3 C-0.34 3 0.32 3 1 3 C1 3.66 1 4.32 1 5 C3.475 5.495 3.475 5.495 6 6 C2.25 8 2.25 8 0 8 C0.8918702 10.24412499 0.8918702 10.24412499 3.5 11.4375 C6 13 6 13 7 16 C6.05125 15.95875 5.1025 15.9175 4.125 15.875 C0.89755144 15.65026182 0.89755144 15.65026182 -1 18 C-1.639375 18.99 -2.27875 19.98 -2.9375 21 C-5 24 -5 24 -8 26 C-10.6875 25.625 -10.6875 25.625 -13 25 C-13.33 24.01 -13.66 23.02 -14 22 C-14.99 21.34 -15.98 20.68 -17 20 C-16.34 20 -15.68 20 -15 20 C-15 19.01 -15 18.02 -15 17 C-15.61875 16.87625 -16.2375 16.7525 -16.875 16.625 C-19 16 -19 16 -21 14 C-23.46049235 14.19985661 -23.46049235 14.19985661 -26.125 14.875 C-27.03507812 15.07867187 -27.94515625 15.28234375 -28.8828125 15.4921875 C-29.58148438 15.65976562 -30.28015625 15.82734375 -31 16 C-30.67 15.34 -30.34 14.68 -30 14 C-32.31 14 -34.62 14 -37 14 C-37.33 13.01 -37.66 12.02 -38 11 C-37.36191406 10.73445313 -36.72382812 10.46890625 -36.06640625 10.1953125 C-35.24011719 9.84210937 -34.41382812 9.48890625 -33.5625 9.125 C-32.73878906 8.77695312 -31.91507812 8.42890625 -31.06640625 8.0703125 C-28.84253285 7.1755063 -28.84253285 7.1755063 -28 5 C-24.71585695 4.04932701 -23.30306592 3.89897803 -20 5 C-20 4.34 -20 3.68 -20 3 C-18.35 2.67 -16.7 2.34 -15 2 C-15 2.66 -15 3.32 -15 4 C-13.02 4 -11.04 4 -9 4 C-11.475 3.505 -11.475 3.505 -14 3 C-9.18448679 0.42026078 -5.47161276 -0.12435484 0 0 Z " fill="#AFB9BF" transform="translate(150,22)"/>
<path d="M0 0 C2.31 0.33 4.62 0.66 7 1 C9.11323966 4.1698595 9.25417216 4.96234387 9.2746582 8.59155273 C9.28419022 9.51939072 9.29372223 10.4472287 9.30354309 11.40318298 C9.30263168 12.40321854 9.30172028 13.40325409 9.30078125 14.43359375 C9.30506638 15.46307632 9.3093515 16.4925589 9.31376648 17.55323792 C9.31951135 19.73120386 9.32000889 21.909189 9.31567383 24.0871582 C9.31251557 27.4210685 9.33596573 30.75409019 9.36132812 34.08789062 C9.36360124 36.20312388 9.36430456 38.31835952 9.36328125 40.43359375 C9.372491 41.43160507 9.38170074 42.42961639 9.39118958 43.45787048 C9.38496078 44.38886063 9.37873199 45.31985077 9.37231445 46.27905273 C9.37294388 47.09607162 9.3735733 47.91309052 9.3742218 48.75486755 C8.88805931 51.67158482 8.18088912 52.99199336 6 55 C4.02 55 2.04 55 0 55 C0 36.85 0 18.7 0 0 Z " fill="#ADB6BC" transform="translate(142,138)"/>
<path d="M0 0 C1.32 0.99 2.64 1.98 4 3 C3.34 3.66 2.68 4.32 2 5 C2 5.99 2 6.98 2 8 C1.01 8 0.02 8 -1 8 C0.78910903 8.52955234 2.58139148 9.0483937 4.375 9.5625 C5.87160156 9.99755859 5.87160156 9.99755859 7.3984375 10.44140625 C9.9677164 11.27656482 9.9677164 11.27656482 12 10 C12 10.66 12 11.32 12 12 C13.65 12 15.3 12 17 12 C16.67 12.66 16.34 13.32 16 14 C13.625 14.75 13.625 14.75 11 15 C10.01 14.34 9.02 13.68 8 13 C8 13.66 8 14.32 8 15 C6.68 15 5.36 15 4 15 C5.32 16.32 6.64 17.64 8 19 C7.34 19 6.68 19 6 19 C5.505 20.485 5.505 20.485 5 22 C4.01 22 3.02 22 2 22 C1.01 22.33 0.02 22.66 -1 23 C-1.5775 22.360625 -2.155 21.72125 -2.75 21.0625 C-4.98062401 19.01776132 -6.07436391 18.41794801 -9 18 C-8.79375 18.61875 -8.5875 19.2375 -8.375 19.875 C-8.25125 20.57625 -8.1275 21.2775 -8 22 C-8.66 22.66 -9.32 23.32 -10 24 C-12.31 23.34 -14.62 22.68 -17 22 C-17 22.66 -17 23.32 -17 24 C-18.98 24.99 -18.98 24.99 -21 26 C-22.32 24.02 -23.64 22.04 -25 20 C-24.01 19.34 -23.02 18.68 -22 18 C-22.33 17.01 -22.66 16.02 -23 15 C-26.00847418 13.77479736 -26.00847418 13.77479736 -29 13 C-28.67 11.68 -28.34 10.36 -28 9 C-26.68 8.67 -25.36 8.34 -24 8 C-24 7.01 -24 6.02 -24 5 C-21.03 5.495 -21.03 5.495 -18 6 C-17.67 7.65 -17.34 9.3 -17 11 C-17.99 11 -18.98 11 -20 11 C-17.82575883 13.50037734 -16.26954202 14.43628586 -13 15 C-13 13.68 -13 12.36 -13 11 C-10.03 11.495 -10.03 11.495 -7 12 C-7 11.34 -7 10.68 -7 10 C-5.68 9.67 -4.36 9.34 -3 9 C-4.65 8.34 -6.3 7.68 -8 7 C-8 6.34 -8 5.68 -8 5 C-5 4 -5 4 -2 5 C-1.855625 4.360625 -1.71125 3.72125 -1.5625 3.0625 C-1 1 -1 1 0 0 Z " fill="#C4C8CC" transform="translate(230,32)"/>
<path d="M0 0 C1.98 0 3.96 0 6 0 C8.38267356 2.38267356 8.25475523 2.8851343 8.2746582 6.12670898 C8.28419022 6.97776718 8.29372223 7.82882538 8.30354309 8.70567322 C8.30263168 9.62651199 8.30172028 10.54735077 8.30078125 11.49609375 C8.30506638 12.44057877 8.3093515 13.38506378 8.31376648 14.35816956 C8.31951586 16.35799355 8.32000558 18.35783845 8.31567383 20.35766602 C8.31251623 23.42174904 8.33595726 26.48486475 8.36132812 29.54882812 C8.36360125 31.48958211 8.36430456 33.4303387 8.36328125 35.37109375 C8.372491 36.28990829 8.38170074 37.20872284 8.39118958 38.15538025 C8.38496078 39.00959061 8.37873199 39.86380096 8.37231445 40.74389648 C8.37294388 41.49509262 8.3735733 42.24628876 8.3742218 43.02024841 C7.88166157 45.62604768 7.17788382 46.49796057 5 48 C3.35 48 1.7 48 0 48 C0 32.16 0 16.32 0 0 Z " fill="#B3BCC2" transform="translate(252,138)"/>
<path d="M0 0 C-0.99 0.680625 -0.99 0.680625 -2 1.375 C-2.99 2.179375 -2.99 2.179375 -4 3 C-4 3.66 -4 4.32 -4 5 C-3.34 4.67 -2.68 4.34 -2 4 C-0.00039988 3.960008 2.00047242 3.95653201 4 4 C4 4.66 4 5.32 4 6 C6.97 5.34 9.94 4.68 13 4 C13.66 4.99 14.32 5.98 15 7 C15.99 7.33 16.98 7.66 18 8 C18 8.99 18 9.98 18 11 C15.69 11.33 13.38 11.66 11 12 C10.67 11.01 10.34 10.02 10 9 C8.02 9.99 8.02 9.99 6 11 C6.99 12.485 6.99 12.485 8 14 C7.01 14 6.02 14 5 14 C5.66 14.33 6.32 14.66 7 15 C6.67 16.32 6.34 17.64 6 19 C3.69 19 1.38 19 -1 19 C-1.33 18.01 -1.66 17.02 -2 16 C-2.94875 16.04125 -3.8975 16.0825 -4.875 16.125 C-8 16 -8 16 -10 14 C-10.763125 14 -11.52625 14 -12.3125 14 C-15.32551081 14 -17.28239021 13.24233591 -20 12 C-18.125 8.125 -18.125 8.125 -17 7 C-17.99 7 -18.98 7 -20 7 C-19.67 5.68 -19.34 4.36 -19 3 C-19 3.66 -19 4.32 -19 5 C-16.36 4.67 -13.72 4.34 -11 4 C-11 3.01 -11 2.02 -11 1 C-3.375 -1.125 -3.375 -1.125 0 0 Z " fill="#A6AFB6" transform="translate(117,31)"/>
<path d="M0 0 C4.455 0.99 4.455 0.99 9 2 C9 2.99 9 3.98 9 5 C11.91517292 3.92598892 13.77810176 3.22189824 16 1 C19.01305957 1.38878188 20.39685311 2.26456874 23 4 C22.6875 5.875 22.6875 5.875 22 8 C21.01 8.66 20.02 9.32 19 10 C18.60828247 11.65391846 18.27942455 13.32345271 18 15 C16.9375 17.3125 16.9375 17.3125 16 19 C16.99 19 17.98 19 19 19 C19.042721 20.66611905 19.04063832 22.33382885 19 24 C18 25 18 25 14.4375 25.0625 C13.303125 25.041875 12.16875 25.02125 11 25 C10.375 23.1875 10.375 23.1875 10 21 C10.66 20.01 11.32 19.02 12 18 C8.04 18.495 8.04 18.495 4 19 C4.33 17.02 4.66 15.04 5 13 C4.236875 13.33 3.47375 13.66 2.6875 14 C0 15 0 15 -3 15 C-3 13.68 -3 12.36 -3 11 C-3.99 10.67 -4.98 10.34 -6 10 C-2.25 7 -2.25 7 0 7 C0 4.69 0 2.38 0 0 Z " fill="#B0BBC1" transform="translate(89,50)"/>
<path d="M0 0 C0.33 0 0.66 0 1 0 C1.576691 5.63692449 2.14606224 11.27452563 2.70898438 16.9128418 C2.90103807 18.82645065 3.09500842 20.73986823 3.29101562 22.65307617 C5.29285134 42.21693491 5.29285134 42.21693491 5 52 C1.37 52 -2.26 52 -6 52 C-5.41637486 41.63009479 -4.46812018 31.34045562 -3.27050781 21.0246582 C-2.99511478 18.64529221 -2.7277646 16.26510591 -2.4609375 13.88476562 C-2.28693027 12.36452924 -2.11246899 10.84434474 -1.9375 9.32421875 C-1.85830322 8.61601486 -1.77910645 7.90781097 -1.69750977 7.17814636 C-1.11494361 2.22988722 -1.11494361 2.22988722 0 0 Z " fill="#AFB7BC" transform="translate(178,165)"/>
<path d="M0 0 C4.08718695 -0.24042276 7.17679443 0.57741188 11 2 C7.25 4 7.25 4 5 4 C5 4.66 5 5.32 5 6 C6.98 6 8.96 6 11 6 C11.33 6.66 11.66 7.32 12 8 C12.99 7.01 13.98 6.02 15 5 C15.125 9.75 15.125 9.75 14 12 C10.9375 12.625 10.9375 12.625 8 13 C8 13.66 8 14.32 8 15 C8.99 14.67 9.98 14.34 11 14 C11 14.66 11 15.32 11 16 C10.01 16 9.02 16 8 16 C8 16.66 8 17.32 8 18 C9.32 18.66 10.64 19.32 12 20 C12 20.99 12 21.98 12 23 C9.69 23 7.38 23 5 23 C4.46375 24.134375 3.9275 25.26875 3.375 26.4375 C1.63257149 29.54629332 1.37723731 29.89118154 -2.25 30.9375 C-3.1575 30.958125 -4.065 30.97875 -5 31 C-5.6875 29.3125 -5.6875 29.3125 -6 27 C-5.03114628 25.31503702 -4.03013277 23.64821244 -3 22 C-3 20.68 -3 19.36 -3 18 C-3.99 17.67 -4.98 17.34 -6 17 C-4.875 15.4375 -4.875 15.4375 -3 14 C0.1875 14.3125 0.1875 14.3125 3 15 C1.11192137 12.30274481 -0.19824644 10.86783571 -3 9 C-1.02 9 0.96 9 3 9 C2.67039784 3.98464948 2.67039784 3.98464948 0 0 Z " fill="#B0BAC0" transform="translate(154,23)"/>
<path d="M0 0 C1.678298 1.31866272 3.34614767 2.65080468 5 4 C8.07183561 3.92686106 9.43090078 3.52694373 11.6875 1.4375 C12.120625 0.963125 12.55375 0.48875 13 0 C13.66 0 14.32 0 15 0 C15 13.2 15 26.4 15 40 C14.34 40 13.68 40 13 40 C11.66355537 35.79974544 10.77299822 31.73741656 10.125 27.375 C8.271241 14.34390204 8.271241 14.34390204 1 4 C-2.76905843 3.44843047 -3.75173326 3.83448884 -7 6 C-7.66 5.67 -8.32 5.34 -9 5 C-9 4.34 -9 3.68 -9 3 C-9.66 2.67 -10.32 2.34 -11 2 C-7.34148709 -0.34144827 -4.27169964 -0.44965259 0 0 Z " fill="#222023" transform="translate(102,135)"/>
<path d="M0 0 C13.2 0 26.4 0 40 0 C40 12.87 40 25.74 40 39 C37.21926131 36.21926131 37.55450061 34.13778664 37.1875 30.25 C36.43475567 23.38193741 34.67716489 17.56057268 32.12109375 11.12109375 C31 8 31 8 30 2 C20.1 2 10.2 2 0 2 C0 1.34 0 0.68 0 0 Z " fill="#2B2A2E" transform="translate(38,136)"/>
<path d="M0 0 C2.97 0.495 2.97 0.495 6 1 C6.33 2.65 6.66 4.3 7 6 C6.01 6 5.02 6 4 6 C6.17424117 8.50037734 7.73045798 9.43628586 11 10 C11 8.68 11 7.36 11 6 C13.475 6.495 13.475 6.495 16 7 C16.05395478 8.62463842 16.09277195 10.24978541 16.125 11.875 C16.14820313 12.77992187 16.17140625 13.68484375 16.1953125 14.6171875 C16 17 16 17 14 19 C11.69 18.34 9.38 17.68 7 17 C7 17.66 7 18.32 7 19 C5.02 19.99 5.02 19.99 3 21 C1.68 19.02 0.36 17.04 -1 15 C-0.01 14.34 0.98 13.68 2 13 C1.67 12.01 1.34 11.02 1 10 C-2.00847418 8.77479736 -2.00847418 8.77479736 -5 8 C-4.67 6.68 -4.34 5.36 -4 4 C-2.68 3.67 -1.36 3.34 0 3 C0 2.01 0 1.02 0 0 Z " fill="#CCD2D7" transform="translate(206,37)"/>
<path d="M0 0 C4.79642058 2.39821029 7.60178971 5.20357942 10 10 C10.70938379 14.96568654 10.55443248 17.69873987 7.75 21.875 C5.25240556 25.18970867 2.7680973 26.7490819 -1.3671875 27.3359375 C-7.09465733 27.42515043 -10.56447399 27.00279176 -15 23 C-17.88540214 19.53751744 -18.54347226 16.50907693 -18.34765625 11.98828125 C-17.53049935 7.31487831 -14.71425872 4.61685981 -11.25 1.625 C-7.26245631 -0.36877185 -4.37028828 -0.8565765 0 0 Z M-14 7 C-15.74221711 10.48443422 -15.58675154 14.19887045 -15 18 C-13.29748281 21.07469523 -11.18773492 23.40613254 -8 25 C-2.87629602 25.60728845 -2.87629602 25.60728845 1.82421875 23.953125 C4.67705805 21.60454058 6.76045164 19.74185875 7.2734375 16.01171875 C7.47157651 11.47738373 7.53156961 9.65423952 4.5625 6 C3.716875 5.34 2.87125 4.68 2 4 C1.67 3.67 1.34 3.34 1 3 C-5.10857998 2.30995671 -9.62461579 2.20119151 -14 7 Z " fill="#32363B" transform="translate(285,105)"/>
<path d="M0 0 C0.33 0 0.66 0 1 0 C1 8.25 1 16.5 1 25 C-7.58 25 -16.16 25 -25 25 C-25 24.67 -25 24.34 -25 24 C-24.3709375 23.85304688 -23.741875 23.70609375 -23.09375 23.5546875 C-14.94947601 21.42049522 -8.86560359 18.19413688 -4.125 11.0625 C-2.07376942 7.47802636 -0.92028348 4.01578246 0 0 Z " fill="#050607" transform="translate(315,236)"/>
<path d="M0 0 C1.05199002 2.10398005 2.09452691 4.21454421 3.04296875 6.3671875 C7.47424794 16.07667978 13.17263873 20.21167479 23 24 C23 24.33 23 24.66 23 25 C15.41 25 7.82 25 0 25 C0 16.75 0 8.5 0 0 Z " fill="#030405" transform="translate(0,236)"/>
<path d="M0 0 C7.92 0 15.84 0 24 0 C24 7.59 24 15.18 24 23 C22 20 22 20 20.7734375 17.73046875 C15.72357488 8.54761801 9.89222072 4.17964237 0 1 C0 0.67 0 0.34 0 0 Z " fill="#030405" transform="translate(292,0)"/>
<path d="M0 0 C7.59 0 15.18 0 23 0 C20 2 20 2 17.73046875 3.2265625 C8.99844167 8.02850673 4.4702961 13.74587707 1 23 C0.67 23 0.34 23 0 23 C0 15.41 0 7.82 0 0 Z " fill="#020304" transform="translate(0,0)"/>
<path d="M0 0 C0.66 0 1.32 0 2 0 C2 17.49 2 34.98 2 53 C1.34 53 0.68 53 0 53 C-0.02578125 52.02160156 -0.0515625 51.04320312 -0.078125 50.03515625 C-0.40018231 38.91165605 -0.40018231 38.91165605 -5 29 C-7.04805102 27.75872917 -7.04805102 27.75872917 -9 27 C-8.34 26.67 -7.68 26.34 -7 26 C-7 25.34 -7 24.68 -7 24 C-6.38125 23.401875 -5.7625 22.80375 -5.125 22.1875 C-0.90874282 17.84723526 -0.64243463 13.00977478 -0.375 7.1875 C-0.33632812 6.49462891 -0.29765625 5.80175781 -0.2578125 5.08789062 C-0.16426432 3.39232985 -0.08107636 1.69620288 0 0 Z " fill="#27272B" transform="translate(67,161)"/>
<path d="M0 0 C1.99956611 0.04165763 4.00043389 0.04165763 6 0 C8.66666667 0 11.33333333 0 14 0 C14.33 0.99 14.66 1.98 15 3 C13.906875 3.309375 12.81375 3.61875 11.6875 3.9375 C9.44592006 4.58337897 7.2130649 5.2623117 5 6 C5.99 6.66 6.98 7.32 8 8 C8 8.66 8 9.32 8 10 C6.02 10 4.04 10 2 10 C1.67 9.01 1.34 8.02 1 7 C0.01 7.99 -0.98 8.98 -2 10 C-2.33 9.34 -2.66 8.68 -3 8 C-5.52733235 7.34444881 -5.52733235 7.34444881 -8 7 C-8 6.34 -8 5.68 -8 5 C-7.34 4.67 -6.68 4.34 -6 4 C-7.32 3.34 -8.64 2.68 -10 2 C-10.15811388 5.05270463 -10.15811388 5.05270463 -9 8 C-9.33 8.66 -9.66 9.32 -10 10 C-12.31 10 -14.62 10 -17 10 C-17 9.34 -17 8.68 -17 8 C-15.35 7.34 -13.7 6.68 -12 6 C-13.32 5.67 -14.64 5.34 -16 5 C-15.67 3.35 -15.34 1.7 -15 0 C-4.21052632 -2.10526316 -4.21052632 -2.10526316 0 0 Z " fill="#7B8489" transform="translate(167,22)"/>
<path d="M0 0 C0.33 0.66 0.66 1.32 1 2 C1.99 2 2.98 2 4 2 C2.92598892 4.91517292 2.22189824 6.77810176 0 9 C0.99 9 1.98 9 3 9 C4.32 9 5.64 9 7 9 C9.80541099 13.20811648 8.85569482 15.09920241 8 20 C7.67 20.66 7.34 21.32 7 22 C5.0625 21.25 5.0625 21.25 3 20 C2.375 17.9375 2.375 17.9375 2 16 C1.34 15.67 0.68 15.34 0 15 C-0.33 14.01 -0.66 13.02 -1 12 C-1.33 12.99 -1.66 13.98 -2 15 C-3.8125 15.9375 -3.8125 15.9375 -6 16 C-8.25 14.25 -8.25 14.25 -10 12 C-10 11.01 -10 10.02 -10 9 C-8.02 9.99 -8.02 9.99 -6 11 C-6 8.84365964 -6.4465236 7.07553648 -7 5 C-6.34 4.67 -5.68 4.34 -5 4 C-5 3.34 -5 2.68 -5 2 C-2 0 -2 0 0 0 Z " fill="#B1BCC2" transform="translate(281,77)"/>
<path d="M0 0 C0.66 0 1.32 0 2 0 C1.690625 1.11375 1.690625 1.11375 1.375 2.25 C0.73591492 4.97191821 0.73591492 4.97191821 2.0625 7.0625 C2.5265625 8.0215625 2.5265625 8.0215625 3 9 C2.125 11.25 2.125 11.25 1 13 C0.34 12.67 -0.32 12.34 -1 12 C-1 12.66 -1 13.32 -1 14 C-1.99 14 -2.98 14 -4 14 C-2.35 15.98 -0.7 17.96 1 20 C0.67 20.66 0.34 21.32 0 22 C-0.66 22 -1.32 22 -2 22 C-2.7115625 21.0409375 -2.7115625 21.0409375 -3.4375 20.0625 C-4.9091365 17.71627037 -4.9091365 17.71627037 -8 17 C-7.67 18.98 -7.34 20.96 -7 23 C-7.94875 22.649375 -8.8975 22.29875 -9.875 21.9375 C-12.87060172 20.64973223 -12.87060172 20.64973223 -15 22 C-15.3125 19.25 -15.3125 19.25 -15 16 C-12.5625 13.8125 -12.5625 13.8125 -10 12 C-9.67 11.01 -9.34 10.02 -9 9 C-9.495 8.54625 -9.99 8.0925 -10.5 7.625 C-12 6 -12 6 -12 4 C-11.34 4 -10.68 4 -10 4 C-9.401875 4.680625 -8.80375 5.36125 -8.1875 6.0625 C-7.1046875 7.0215625 -7.1046875 7.0215625 -6 8 C-3.29294488 7.85974801 -3.29294488 7.85974801 -1 7 C-1.99 6.01 -2.98 5.02 -4 4 C-3.34 3.67 -2.68 3.34 -2 3 C-1.67 2.34 -1.34 1.68 -1 1 C-0.67 0.67 -0.34 0.34 0 0 Z " fill="#D8DDE1" transform="translate(258,48)"/>
<path d="M0 0 C0.33 0.66 0.66 1.32 1 2 C2.32 2 3.64 2 5 2 C5 2.66 5 3.32 5 4 C3.35 4.66 1.7 5.32 0 6 C2.31 6.33 4.62 6.66 7 7 C7.33 9.64 7.66 12.28 8 15 C4.11398869 13.55662437 -0.01811912 11.98188088 -3 9 C-4.69752187 9.25245197 -6.38471545 9.57645775 -8.0625 9.9375 C-8.98160156 10.13214844 -9.90070313 10.32679687 -10.84765625 10.52734375 C-11.55792969 10.68332031 -12.26820312 10.83929688 -13 11 C-12.67 10.34 -12.34 9.68 -12 9 C-14.31 9 -16.62 9 -19 9 C-19.33 8.01 -19.66 7.02 -20 6 C-16.17010894 4.19769832 -13.21878192 3.80377759 -9 4 C-9 4.66 -9 5.32 -9 6 C-7.02 5.34 -5.04 4.68 -3 4 C-4.32 3.34 -5.64 2.68 -7 2 C-4.69 1.34 -2.38 0.68 0 0 Z " fill="#B3BCC3" transform="translate(132,27)"/>
<path d="M0 0 C0 0.33 0 0.66 0 1 C-1.65 1 -3.3 1 -5 1 C-5 1.66 -5 2.32 -5 3 C-7.31 2.67 -9.62 2.34 -12 2 C-12 2.99 -12 3.98 -12 5 C-12.639375 5.268125 -13.27875 5.53625 -13.9375 5.8125 C-16.33131686 6.88667752 -16.33131686 6.88667752 -17 10 C-16.05125 10.0825 -15.1025 10.165 -14.125 10.25 C-11 11 -11 11 -9.625 13.0625 C-9.41875 13.701875 -9.2125 14.34125 -9 15 C-11.31 14.67 -13.62 14.34 -16 14 C-16 13.01 -16 12.02 -16 11 C-16.99 11 -17.98 11 -19 11 C-19.33 11.99 -19.66 12.98 -20 14 C-20.66 12.02 -21.32 10.04 -22 8 C-23.65 7.67 -25.3 7.34 -27 7 C-27.33 6.01 -27.66 5.02 -28 4 C-25.69 4.33 -23.38 4.66 -21 5 C-21 4.34 -21 3.68 -21 3 C-20.67 2.34 -20.34 1.68 -20 1 C-17.69 1.33 -15.38 1.66 -13 2 C-13 1.01 -13 0.02 -13 -1 C-7.96488101 -2.0070238 -4.76052962 -1.97387813 0 0 Z " fill="#98A0A6" transform="translate(218,35)"/>
<path d="M0 0 C0 0.66 0 1.32 0 2 C1.65 2 3.3 2 5 2 C5.33 3.32 5.66 4.64 6 6 C6.66 6 7.32 6 8 6 C7.67 7.32 7.34 8.64 7 10 C8.32 10 9.64 10 11 10 C11 10.66 11 11.32 11 12 C8.69 12.33 6.38 12.66 4 13 C4 12.01 4 11.02 4 10 C1.36 10 -1.28 10 -4 10 C-2.6875 8.5 -2.6875 8.5 -1 7 C-0.01 7 0.98 7 2 7 C2 6.34 2 5.68 2 5 C-1.98196457 3.94595055 -4.98195309 4.15901344 -9 5 C-7.68 5.66 -6.36 6.32 -5 7 C-8 9 -8 9 -12 9 C-12 8.34 -12 7.68 -12 7 C-13.98 7.33 -15.96 7.66 -18 8 C-16.44234689 4.88469378 -14.14391192 4.05696513 -11 2.8125 C-8 2 -8 2 -5 3 C-5 2.34 -5 1.68 -5 1 C-3 0 -3 0 0 0 Z " fill="#7D878D" transform="translate(135,24)"/>
<path d="M0 0 C0 0.66 0 1.32 0 2 C0.99 2.33 1.98 2.66 3 3 C3.9375 4.8125 3.9375 4.8125 4 7 C2.1875 9.25 2.1875 9.25 0 11 C-0.66 11 -1.32 11 -2 11 C-2.33 11.99 -2.66 12.98 -3 14 C-3.99 14 -4.98 14 -6 14 C-8.67398476 15.93897879 -8.67398476 15.93897879 -11 18 C-12.21621622 12.64864865 -12.21621622 12.64864865 -11.25 9.75 C-10 8 -10 8 -7 6 C-6.67 5.01 -6.34 4.02 -6 3 C-3.86928565 0.38503239 -3.5167455 0 0 0 Z " fill="#A6B1B7" transform="translate(48,78)"/>
<path d="M0 0 C2.58112962 2.99744085 3.43827512 5.06747077 3.75 9 C3.82734375 9.845625 3.9046875 10.69125 3.984375 11.5625 C3.99944235 13.91300603 3.68377952 15.76217611 3 18 C2.34 18 1.68 18 1 18 C1.33 19.98 1.66 21.96 2 24 C1.34 24 0.68 24 0 24 C-0.66 23.01 -1.32 22.02 -2 21 C-3.65 21.99 -5.3 22.98 -7 24 C-6.68933594 23.29617187 -6.37867188 22.59234375 -6.05859375 21.8671875 C-4.96740867 18.91172681 -4.48744078 16.24123239 -4.0625 13.125 C-3.31406885 8.27516615 -2.18863916 4.37727832 0 0 Z " fill="#ADB7BE" transform="translate(299,104)"/>
<path d="M0 0 C2.5 -0.3125 2.5 -0.3125 5 0 C5.66 0.66 6.32 1.32 7 2 C6.625 4.125 6.625 4.125 6 6 C4.88625 6.12375 3.7725 6.2475 2.625 6.375 C-1.03103677 6.6465813 -1.03103677 6.6465813 -3 9 C-3.70710678 10.64991582 -4.37943989 12.31562256 -5 14 C-7.31 13.67 -9.62 13.34 -12 13 C-10.90384615 6.42307692 -10.90384615 6.42307692 -9 4 C-6.67284 3.62599214 -4.33882138 3.29235267 -2 3 C-1.34 2.01 -0.68 1.02 0 0 Z " fill="#ADB9BF" transform="translate(183,56)"/>
<path d="M0 0 C-0.598125 0.433125 -1.19625 0.86625 -1.8125 1.3125 C-3.97767167 2.90835386 -3.97767167 2.90835386 -5.625 4.625 C-7 6 -7 6 -9 7 C-9.33 7.99 -9.66 8.98 -10 10 C-9.34 10.33 -8.68 10.66 -8 11 C-9.6875 12.5625 -9.6875 12.5625 -12 14 C-15.50610679 13.7434556 -17.0278901 12.9814066 -20 11 C-18 8 -18 8 -17 7 C-17.99 7 -18.98 7 -20 7 C-19.67 5.68 -19.34 4.36 -19 3 C-19 3.66 -19 4.32 -19 5 C-16.36 4.67 -13.72 4.34 -11 4 C-11 3.01 -11 2.02 -11 1 C-3.375 -1.125 -3.375 -1.125 0 0 Z " fill="#879097" transform="translate(117,31)"/>
<path d="M0 0 C0.33 0 0.66 0 1 0 C1.34197019 3.12411592 1.67192253 6.24939708 2 9.375 C2.09539062 10.24511719 2.19078125 11.11523438 2.2890625 12.01171875 C2.91321115 18.03029503 3.11723906 23.95079012 3 30 C0 31 0 31 -3 31 C-4.42109134 28.15781731 -3.83042194 26.11640522 -3.4765625 22.96875 C-3.3425 21.76605469 -3.2084375 20.56335938 -3.0703125 19.32421875 C-2.92335937 18.06222656 -2.77640625 16.80023438 -2.625 15.5 C-2.48578125 14.23800781 -2.3465625 12.97601563 -2.203125 11.67578125 C-1.13437283 2.26874567 -1.13437283 2.26874567 0 0 Z " fill="#A4AAAF" transform="translate(178,165)"/>
<path d="M0 0 C0 0.99 0 1.98 0 3 C1.2065625 3.185625 1.2065625 3.185625 2.4375 3.375 C3.7059375 3.684375 3.7059375 3.684375 5 4 C5.33 4.66 5.66 5.32 6 6 C4.35 6 2.7 6 1 6 C1 6.66 1 7.32 1 8 C-1.97 7.505 -1.97 7.505 -5 7 C-5 8.32 -5 9.64 -5 11 C-7.97 10.505 -7.97 10.505 -11 10 C-11 6.09397933 -10.72946317 3.45892635 -9 0 C-5.65506316 -0.99444068 -3.31044803 -1.10348268 0 0 Z " fill="#9FA4A8" transform="translate(222,36)"/>
<path d="M0 0 C7.71484375 -0.09765625 7.71484375 -0.09765625 10 0 C11 1 11 1 11.0625 3.5625 C11.041875 4.366875 11.02125 5.17125 11 6 C10.01 6.33 9.02 6.66 8 7 C9.32 9.31 10.64 11.62 12 14 C9.18127263 13.61121002 8.22804402 13.29189635 6.4375 11 C5.963125 10.34 5.48875 9.68 5 9 C4.01 8.67 3.02 8.34 2 8 C2 9.98 2 11.96 2 14 C1.34 14 0.68 14 0 14 C0 9.38 0 4.76 0 0 Z " fill="#222426" transform="translate(275,112)"/>
<path d="M0 0 C3.35289282 0.28739081 5.03956604 1.02813585 7.8125 3 C10.41861066 6.57409462 10.66462249 8.58593569 10.44140625 12.90625 C9.81559356 15.87470667 8.42233615 17.25894589 6 19 C1 13.25 1 13.25 1 11 C1.66 10.67 2.32 10.34 3 10 C3.25030977 7.58380177 3.25030977 7.58380177 3 5 C2.01 4.34 1.02 3.68 0 3 C0 2.01 0 1.02 0 0 Z " fill="#ABB2B7" transform="translate(282,108)"/>
<path d="M0 0 C4.875 0.875 4.875 0.875 6 2 C6.04063832 3.66617115 6.042721 5.33388095 6 7 C5.01 7.33 4.02 7.66 3 8 C0.37613513 4.93882432 0 4.26826873 0 0 Z M-2 4 C-0.35 5.65 1.3 7.3 3 9 C1.8125 11.5 1.8125 11.5 0 14 C-2.9610645 14.5922129 -4.32388656 14.42820518 -6.875 12.8125 C-8 11 -8 11 -8 8.4375 C-7 6 -7 6 -4.4375 4.6875 C-3.633125 4.460625 -2.82875 4.23375 -2 4 Z " fill="#AFB9C0" transform="translate(250,85)"/>
<path d="M0 0 C0 0.66 0 1.32 0 2 C1.32 1.67 2.64 1.34 4 1 C3.25 2.9375 3.25 2.9375 2 5 C-0.125 5.75 -0.125 5.75 -2 6 C-2.33 5.34 -2.66 4.68 -3 4 C-3.99 4.33 -4.98 4.66 -6 5 C-6.66 5 -7.32 5 -8 5 C-8.99 5.495 -8.99 5.495 -10 6 C-10 7.32 -10 8.64 -10 10 C-9.01 10 -8.02 10 -7 10 C-7.8125 11.9375 -7.8125 11.9375 -9 14 C-9.99 14.33 -10.98 14.66 -12 15 C-12 14.01 -12 13.02 -12 12 C-13.32 12 -14.64 12 -16 12 C-16.99 11.67 -17.98 11.34 -19 11 C-17.6875 9 -17.6875 9 -16 7 C-15.01 7 -14.02 7 -13 7 C-12.7525 6.401875 -12.505 5.80375 -12.25 5.1875 C-9.20321486 -0.144374 -5.88396436 -0.33945948 0 0 Z " fill="#828C92" transform="translate(78,53)"/>
<path d="M0 0 C10.15317287 0.35010941 10.15317287 0.35010941 13.6875 3.0625 C14.120625 3.701875 14.55375 4.34125 15 5 C14.34 5 13.68 5 13 5 C13 5.66 13 6.32 13 7 C14.65 7.33 16.3 7.66 18 8 C18 8.33 18 8.66 18 9 C15.69 8.67 13.38 8.34 11 8 C11 8.99 11 9.98 11 11 C8.69 10.67 6.38 10.34 4 10 C4 9.34 4 8.68 4 8 C4.99 8 5.98 8 7 8 C6.67 7.34 6.34 6.68 6 6 C3.97536745 5.34786708 3.97536745 5.34786708 2 5 C2 4.34 2 3.68 2 3 C1.34 2.67 0.68 2.34 0 2 C0 1.34 0 0.68 0 0 Z " fill="#7B858B" transform="translate(184,23)"/>
<path d="M0 0 C-0.33 0.99 -0.66 1.98 -1 3 C-0.34 3 0.32 3 1 3 C1 3.66 1 4.32 1 5 C3.475 5.495 3.475 5.495 6 6 C2.25 8 2.25 8 0 8 C-0.33 8.66 -0.66 9.32 -1 10 C-1 9.01 -1 8.02 -1 7 C-1.99 7.495 -1.99 7.495 -3 8 C-4.99960012 8.039992 -7.00047242 8.04346799 -9 8 C-9 6.68 -9 5.36 -9 4 C-10.65 3.67 -12.3 3.34 -14 3 C-9.18448679 0.42026078 -5.47161276 -0.12435484 0 0 Z " fill="#969FA5" transform="translate(150,22)"/>
<path d="M0 0 C1.74500759 2.98671726 2.21171728 4.79532383 1.76806641 8.21777344 C1.66781158 9.03832214 1.56755676 9.85887085 1.46426392 10.70428467 C1.34457245 11.58046448 1.22488098 12.45664429 1.1015625 13.359375 C0.98775238 14.26375305 0.87394226 15.1681311 0.75668335 16.09991455 C0.39094487 18.98488359 0.0082069 21.86730451 -0.375 24.75 C-0.62612363 26.70688738 -0.87613704 28.66391758 -1.125 30.62109375 C-1.73713499 35.41581411 -2.36452379 40.20831968 -3 45 C-3.66 45 -4.32 45 -5 45 C-5.11402869 39.25295427 -4.71583694 33.81029818 -3.90625 28.125 C-3.79526978 27.31506592 -3.68428955 26.50513184 -3.56994629 25.6706543 C-3.21832748 23.11304458 -2.85929511 20.55654143 -2.5 18 C-2.25862143 16.25397435 -2.01773134 14.50788111 -1.77734375 12.76171875 C-1.19053723 8.5070105 -0.59708495 4.25327749 0 0 Z " fill="#3B4045" transform="translate(175,172)"/>
<path d="M0 0 C0.66 0 1.32 0 2 0 C2 13.2 2 26.4 2 40 C1.34 40 0.68 40 0 40 C-2.1583195 33.92972642 -2.20852314 28.40629424 -2 22 C-1.34 21.67 -0.68 21.34 0 21 C0 14.07 0 7.14 0 0 Z " fill="#3E4045" transform="translate(115,135)"/>
<path d="M0 0 C1.31291016 0.22236328 1.31291016 0.22236328 2.65234375 0.44921875 C6.2458713 1.18129015 6.2458713 1.18129015 9.58984375 0.13671875 C9.58984375 0.79671875 9.58984375 1.45671875 9.58984375 2.13671875 C11.23984375 2.13671875 12.88984375 2.13671875 14.58984375 2.13671875 C14.25984375 2.79671875 13.92984375 3.45671875 13.58984375 4.13671875 C11.21484375 4.88671875 11.21484375 4.88671875 8.58984375 5.13671875 C7.59984375 4.47671875 6.60984375 3.81671875 5.58984375 3.13671875 C5.58984375 3.79671875 5.58984375 4.45671875 5.58984375 5.13671875 C4.26984375 5.13671875 2.94984375 5.13671875 1.58984375 5.13671875 C2.90984375 6.45671875 4.22984375 7.77671875 5.58984375 9.13671875 C4.92984375 9.13671875 4.26984375 9.13671875 3.58984375 9.13671875 C3.25984375 10.12671875 2.92984375 11.11671875 2.58984375 12.13671875 C2.19796875 11.37359375 1.80609375 10.61046875 1.40234375 9.82421875 C-0.57684603 6.88955804 -2.29683795 5.73544977 -5.41015625 4.13671875 C-3.08841128 0.17519351 -3.08841128 0.17519351 0 0 Z " fill="#E1E6E9" transform="translate(232.41015625,41.86328125)"/>
<path d="M0 0 C1.32 0.66 2.64 1.32 4 2 C2.515 4.475 2.515 4.475 1 7 C1.99 7 2.98 7 4 7 C4.042721 8.66611905 4.04063832 10.33382885 4 12 C3 13 3 13 -0.5625 13.0625 C-1.696875 13.041875 -2.83125 13.02125 -4 13 C-4.625 11.1875 -4.625 11.1875 -5 9 C-4.34 8.01 -3.68 7.02 -3 6 C-3.66 5.67 -4.32 5.34 -5 5 C-3.35 3.35 -1.7 1.7 0 0 Z " fill="#B2BDC3" transform="translate(104,62)"/>
<path d="M0 0 C0.99 0 1.98 0 3 0 C2.67 1.98 2.34 3.96 2 6 C2.99 5.67 3.98 5.34 5 5 C7.1875 5.4375 7.1875 5.4375 9 6 C8.25 10.75 8.25 10.75 6 13 C4.68 13 3.36 13 2 13 C1.67 11.35 1.34 9.7 1 8 C-0.32 7.67 -1.64 7.34 -3 7 C-2.38722388 4.03824877 -1.74627478 2.61941217 0 0 Z " fill="#A8B3B9" transform="translate(56,92)"/>
<path d="M0 0 C2.97 0.495 2.97 0.495 6 1 C6.33 2.65 6.66 4.3 7 6 C6.01 6 5.02 6 4 6 C4.33 7.98 4.66 9.96 5 12 C4.01 12.495 4.01 12.495 3 13 C2.4225 12.360625 1.845 11.72125 1.25 11.0625 C-0.98062401 9.01776132 -2.07436391 8.41794801 -5 8 C-4.67 6.68 -4.34 5.36 -4 4 C-2.68 3.67 -1.36 3.34 0 3 C0 2.01 0 1.02 0 0 Z " fill="#C2C8CE" transform="translate(206,37)"/>
<path d="M0 0 C2.31 0 4.62 0 7 0 C7.33 1.98 7.66 3.96 8 6 C6.3125 7.5625 6.3125 7.5625 4 9 C-0.41025641 8.58974359 -0.41025641 8.58974359 -2 7 C-2.04063832 5.33382885 -2.042721 3.66611905 -2 2 C-1.34 2 -0.68 2 0 2 C0 1.34 0 0.68 0 0 Z " fill="#96A1A7" transform="translate(120,108)"/>
<path d="M0 0 C2.13017804 3.4584067 2.18578931 6.11069991 2.0625 10.125 C1.80849804 14.21805369 1.80849804 14.21805369 3 18 C3.99 18.33 4.98 18.66 6 19 C6 19.66 6 20.32 6 21 C1.71 21 -2.58 21 -7 21 C-7 20.34 -7 19.68 -7 19 C-5.68 18.67 -4.36 18.34 -3 18 C-1.54066252 12.00679849 -0.58490879 6.14154225 0 0 Z " fill="#27282C" transform="translate(169,219)"/>
<path d="M0 0 C2.5 0.25 2.5 0.25 4.5 2.25 C4.75 4.75 4.75 4.75 4.5 7.25 C2.5 9.25 2.5 9.25 -1.125 9.375 C-2.23875 9.33375 -3.3525 9.2925 -4.5 9.25 C-4.625 5.875 -4.625 5.875 -4.5 2.25 C-2.5 0.25 -2.5 0.25 0 0 Z " fill="#939EA4" transform="translate(149.5,105.75)"/>
<path d="M0 0 C3.375 -0.125 3.375 -0.125 7 0 C9 2 9 2 9.25 4.5 C9 7 9 7 7 9 C4.5 9.3125 4.5 9.3125 2 9 C-0.29013653 5.5647952 -0.17842973 4.014669 0 0 Z " fill="#95A0A6" transform="translate(199,108)"/>
<path d="M0 0 C0 0.99 0 1.98 0 3 C1.423125 3.37125 1.423125 3.37125 2.875 3.75 C6 5 6 5 7.375 7.125 C7.58125 7.74375 7.7875 8.3625 8 9 C6.6078125 8.9690625 6.6078125 8.9690625 5.1875 8.9375 C1.97713989 8.84230396 1.97713989 8.84230396 -1 10 C-1.66 8.35 -2.32 6.7 -3 5 C-4.32 5 -5.64 5 -7 5 C-6.67 3.68 -6.34 2.36 -6 1 C-3.92446352 0.4465236 -2.15634036 0 0 0 Z " fill="#B2BCC2" transform="translate(149,29)"/>
<path d="M0 0 C3.0625 0.1875 3.0625 0.1875 5.0625 2.1875 C4.50694444 6.74305556 4.50694444 6.74305556 3.0625 8.1875 C0.125 8.375 0.125 8.375 -2.9375 8.1875 C-3.5975 7.5275 -4.2575 6.8675 -4.9375 6.1875 C-4.21574268 0.26908996 -4.21574268 0.26908996 0 0 Z " fill="#838D94" transform="translate(162.9375,93.8125)"/>
<path d="M0 0 C2.5 0.25 2.5 0.25 4.5 2.25 C4.75 4.75 4.75 4.75 4.5 7.25 C3.84 7.91 3.18 8.57 2.5 9.25 C-0.11580479 8.9230244 -2.14078137 8.42960932 -4.5 7.25 C-4.625 4.875 -4.625 4.875 -4.5 2.25 C-2.5 0.25 -2.5 0.25 0 0 Z " fill="#929CA3" transform="translate(176.5,105.75)"/>
<path d="M0 0 C0.66 0 1.32 0 2 0 C2.08701039 3.60401481 2.14039388 7.20776012 2.1875 10.8125 C2.22520508 12.34874023 2.22520508 12.34874023 2.26367188 13.91601562 C2.27333984 14.89892578 2.28300781 15.88183594 2.29296875 16.89453125 C2.3086792 17.80050049 2.32438965 18.70646973 2.34057617 19.63989258 C1.93875073 22.42444206 1.16311438 23.27599535 -1 25 C-1.66 24.67 -2.32 24.34 -3 24 C-2.86722656 23.35675781 -2.73445313 22.71351563 -2.59765625 22.05078125 C-1.16447603 14.71750143 -0.45034931 7.45446622 0 0 Z " fill="#28282A" transform="translate(76,197)"/>
<path d="M0 0 C1.1446875 0.3403125 1.1446875 0.3403125 2.3125 0.6875 C2.6425 2.3375 2.9725 3.9875 3.3125 5.6875 C0.25132432 8.31136487 -0.41923127 8.6875 -4.6875 8.6875 C-6.01591008 3.25309513 -6.01591008 3.25309513 -4.5625 0.75 C-2.6875 -0.3125 -2.6875 -0.3125 0 0 Z " fill="#889399" transform="translate(112.6875,97.3125)"/>
<path d="M0 0 C2.9375 0.1875 2.9375 0.1875 3.9375 1.1875 C4.125 3.625 4.125 3.625 3.9375 6.1875 C1.9375 8.1875 1.9375 8.1875 -1.1875 8.3125 C-2.610625 8.250625 -2.610625 8.250625 -4.0625 8.1875 C-4.6875 5.3125 -4.6875 5.3125 -5.0625 2.1875 C-3.0625 0.1875 -3.0625 0.1875 0 0 Z " fill="#828D93" transform="translate(137.0625,94.8125)"/>
<path d="M0 0 C0.33 0.66 0.66 1.32 1 2 C1.99 2 2.98 2 4 2 C3.25 4.4375 3.25 4.4375 2 7 C-0.125 7.8125 -0.125 7.8125 -2 8 C-2 8.99 -2 9.98 -2 11 C-3.9375 10.25 -3.9375 10.25 -6 9 C-6.75 6.875 -6.75 6.875 -7 5 C-6.34 4.67 -5.68 4.34 -5 4 C-5 3.34 -5 2.68 -5 2 C-2 0 -2 0 0 0 Z " fill="#96A1A7" transform="translate(281,77)"/>
<path d="M0 0 C2.4375 0.1875 2.4375 0.1875 3.4375 1.1875 C3.6875 4.125 3.6875 4.125 3.4375 7.1875 C0.4375 9.1875 0.4375 9.1875 -3.5625 9.1875 C-4.1875 5.8125 -4.1875 5.8125 -4.5625 2.1875 C-2.5625 0.1875 -2.5625 0.1875 0 0 Z " fill="#99A4AA" transform="translate(98.5625,110.8125)"/>
<path d="M0 0 C3.0625 0.1875 3.0625 0.1875 5.0625 2.1875 C4.50694444 6.74305556 4.50694444 6.74305556 3.0625 8.1875 C0.625 8.375 0.625 8.375 -1.9375 8.1875 C-3.9375 6.1875 -3.9375 6.1875 -4.125 3.625 C-3.8509967 0.06295712 -3.62735131 0.23153306 0 0 Z " fill="#828C92" transform="translate(188.9375,94.8125)"/>
<path d="M0 0 C2.33294775 -0.04241723 4.66702567 -0.04092937 7 0 C8 1 8 1 8.1875 3.4375 C8 6 8 6 6 8 C3.38419521 7.6730244 1.35921863 7.17960932 -1 6 C-0.67 4.02 -0.34 2.04 0 0 Z " fill="#767F86" transform="translate(172,83)"/>
<path d="M0 0 C0 0.99 0 1.98 0 3 C-2.97 3 -5.94 3 -9 3 C-8.649375 3.94875 -8.29875 4.8975 -7.9375 5.875 C-7 9 -7 9 -8 11 C-10.31 11 -12.62 11 -15 11 C-15 10.34 -15 9.68 -15 9 C-13.35 8.34 -11.7 7.68 -10 7 C-11.32 6.67 -12.64 6.34 -14 6 C-13.67 4.35 -13.34 2.7 -13 1 C-8.60563789 0.14256349 -4.47427924 -0.08948558 0 0 Z " fill="#646D73" transform="translate(165,21)"/>
<path d="M0 0 C1.32 0 2.64 0 4 0 C4.75 2.75 4.75 2.75 5 6 C3.3125 8.4375 3.3125 8.4375 1 10 C-1.25 9.75 -1.25 9.75 -3 9 C-2.67 6.69 -2.34 4.38 -2 2 C-1.34 2 -0.68 2 0 2 C0 1.34 0 0.68 0 0 Z " fill="#A0ABB1" transform="translate(75,114)"/>
<path d="M0 0 C2.00720923 0.28674418 4.0085944 0.61866701 6 1 C6.33 3.31 6.66 5.62 7 8 C4.6875 8.6875 4.6875 8.6875 2 9 C0.1875 7.875 0.1875 7.875 -1 6 C-1.25 3.375 -1.25 3.375 -1 1 C-0.67 0.67 -0.34 0.34 0 0 Z " fill="#97A2A8" transform="translate(225,110)"/>
<path d="M0 0 C0.66 0.66 1.32 1.32 2 2 C1.63318342 4.93453261 1.13562754 5.86437246 -1 8 C-3.5625 8.1875 -3.5625 8.1875 -6 8 C-7 7 -7 7 -7.0625 3.9375 C-7.041875 2.968125 -7.02125 1.99875 -7 1 C-4.48718205 -0.25640898 -2.78302919 -0.20872719 0 0 Z " fill="#767F86" transform="translate(153,83)"/>
<path d="M0 0 C2.31 0.33 4.62 0.66 7 1 C7.625 3.375 7.625 3.375 8 6 C7.34 6.66 6.68 7.32 6 8 C3.5 7.9375 3.5 7.9375 1 7 C-0.375 4.5625 -0.375 4.5625 -1 2 C-0.67 1.34 -0.34 0.68 0 0 Z " fill="#859096" transform="translate(211,97)"/>
<path d="M0 0 C2.875 0.3125 2.875 0.3125 6 1 C8 4 8 4 8 8 C6.25 8.6875 6.25 8.6875 4 9 C1.75 7.9375 1.75 7.9375 0 6 C-0.25 2.8125 -0.25 2.8125 0 0 Z " fill="#889399" transform="translate(234,100)"/>
<path d="M0 0 C5.71428571 0.71428571 5.71428571 0.71428571 7 2 C7.125 4.5 7.125 4.5 7 7 C6.67 7.33 6.34 7.66 6 8 C3.66055264 7.71269945 1.3260857 7.38063221 -1 7 C-1.04254356 5.00045254 -1.04080783 2.99958364 -1 1 C-0.67 0.67 -0.34 0.34 0 0 Z " fill="#788087" transform="translate(198,84)"/>
<path d="M0 0 C5.75 1.875 5.75 1.875 8 3 C6.95125002 5.62187494 6.35068687 6.79371361 3.875 8.25 C3.25625 8.4975 2.6375 8.745 2 9 C1.67 8.34 1.34 7.68 1 7 C0.34 7 -0.32 7 -1 7 C-1.66 5.68 -2.32 4.36 -3 3 C-2.01 2.01 -1.02 1.02 0 0 Z " fill="#7D888E" transform="translate(54,69)"/>
<path d="M0 0 C2.97 0.495 2.97 0.495 6 1 C6 2.32 6 3.64 6 5 C5.34 5 4.68 5 4 5 C4 5.66 4 6.32 4 7 C2.68 7 1.36 7 0 7 C0 8.98 0 10.96 0 13 C-0.66 13 -1.32 13 -2 13 C-2 10.36 -2 7.72 -2 5 C-1.34 5 -0.68 5 0 5 C0 3.35 0 1.7 0 0 Z " fill="#2E3033" transform="translate(277,113)"/>
<path d="M0 0 C3.39398034 0.2909126 5.03113751 1.02283417 7.8125 3.0625 C10.77525245 7.04105328 10.4116201 9.14288276 10 14 C9.34 13.01 8.68 12.02 8 11 C7.017588 9.7773242 6.0165487 8.56944472 5 7.375 C4.484375 6.76398438 3.96875 6.15296875 3.4375 5.5234375 C2.05647464 3.8850634 2.05647464 3.8850634 0 3 C0 2.01 0 1.02 0 0 Z " fill="#AAB3B7" transform="translate(282,108)"/>
<path d="M0 0 C0.36075949 4.44936709 0.36075949 4.44936709 -1.1875 6.8125 C-3.55982525 8.36678206 -5.22041345 8.22537188 -8 8 C-7.74438677 5.6568787 -7.40729228 3.32156597 -7 1 C-4.53721199 -0.231394 -2.7204945 -0.07159196 0 0 Z " fill="#7C878D" transform="translate(105,88)"/>
<path d="M0 0 C0.625 2.375 0.625 2.375 1 5 C-1 7 -1 7 -4.125 7.125 C-5.548125 7.063125 -5.548125 7.063125 -7 7 C-7.6875 5.1875 -7.6875 5.1875 -8 3 C-5.85915306 -0.33020635 -3.75910189 -0.30479204 0 0 Z " fill="#777F86" transform="translate(128,85)"/>
<path d="M0 0 C2.31 0.33 4.62 0.66 7 1 C7.33 3.31 7.66 5.62 8 8 C2.25 7.25 2.25 7.25 0 5 C-0.125 2.375 -0.125 2.375 0 0 Z " fill="#9DA8AE" transform="translate(246,114)"/>
<path d="M0 0 C2.00720923 0.28674418 4.0085944 0.61866701 6 1 C6.38218767 2.65614657 6.71395102 4.32457024 7 6 C6 7 6 7 3.0625 7.1875 C0 7 0 7 -2 5 C-1.46428571 1.46428571 -1.46428571 1.46428571 0 0 Z " fill="#697278" transform="translate(185,73)"/>
<path d="M0 0 C2.625 0.375 2.625 0.375 5 1 C5.625 3.375 5.625 3.375 6 6 C5.34 6.66 4.68 7.32 4 8 C1.375 7.625 1.375 7.625 -1 7 C-1.625 4.625 -1.625 4.625 -2 2 C-1.34 1.34 -0.68 0.68 0 0 Z " fill="#6D757C" transform="translate(161,72)"/>
<path d="M0 0 C3.25696479 0.41755959 4.63443291 0.63443291 7 3 C6.625 5.625 6.625 5.625 6 8 C3.625 8.125 3.625 8.125 1 8 C-1 6 -1 6 -1.1875 3.4375 C-1 1 -1 1 0 0 Z " fill="#7B868C" transform="translate(222,87)"/>
<path d="M0 0 C2.60110992 1.45237072 4.67566195 3.10258118 7 5 C6.01 5.66 5.02 6.32 4 7 C3.608125 6.505 3.21625 6.01 2.8125 5.5 C1.06559154 3.78091532 1.06559154 3.78091532 -1.5 3.6875 C-4.24689917 3.84161185 -4.24689917 3.84161185 -7 6 C-7.66 5.67 -8.32 5.34 -9 5 C-9 4.34 -9 3.68 -9 3 C-9.66 2.67 -10.32 2.34 -11 2 C-7.31729066 -0.35693398 -4.30132642 -0.51032686 0 0 Z " fill="#34383C" transform="translate(102,135)"/>
<path d="M0 0 C1.134375 0.020625 2.26875 0.04125 3.4375 0.0625 C3.625 2.4375 3.625 2.4375 3.4375 5.0625 C0.4375 7.0625 0.4375 7.0625 -2.25 6.6875 C-3.013125 6.48125 -3.77625 6.275 -4.5625 6.0625 C-4.605221 4.39638095 -4.60313832 2.72867115 -4.5625 1.0625 C-3.5625 0.0625 -3.5625 0.0625 0 0 Z " fill="#6D767D" transform="translate(138.5625,73.9375)"/>
<path d="M0 0 C2 2 2 2 2.4375 5.6875 C2.33376899 10.42454946 0.365687 13.72912109 -3 17 C-3.99 17.33 -4.98 17.66 -6 18 C-5.56314716 15.55362411 -5.11354642 14.14012111 -3.53125 12.1875 C-1.76830637 9.6690091 -1.32795254 7.76341488 -0.8125 4.75 C-0.65394531 3.85796875 -0.49539063 2.9659375 -0.33203125 2.046875 C-0.22246094 1.37140625 -0.11289062 0.6959375 0 0 Z " fill="#272C31" transform="translate(293,113)"/>
<path d="M0 0 C0 4.95 0 9.9 0 15 C-4 11 -4 11 -4.49609375 8.7109375 C-4.47675781 7.94007812 -4.45742188 7.16921875 -4.4375 6.375 C-4.43621094 5.59898438 -4.43492187 4.82296875 -4.43359375 4.0234375 C-3.91696611 1.61250853 -2.81283154 0 0 0 Z " fill="#ADB3B9" transform="translate(274,112)"/>
<path d="M0 0 C1.8125 1.3125 1.8125 1.3125 3.8125 4.3125 C3.4375 7 3.4375 7 2.8125 9.3125 C2.1525 9.3125 1.4925 9.3125 0.8125 9.3125 C-0.53173339 7.65461215 -1.86368483 5.98673683 -3.1875 4.3125 C-5.31353185 2.54926495 -5.31353185 2.54926495 -7.1875 1.3125 C-2.80153509 -0.88048246 -2.80153509 -0.88048246 0 0 Z " fill="#A6AEB3" transform="translate(292.1875,103.6875)"/>
<path d="M0 0 C2.31 0.33 4.62 0.66 7 1 C7.38218767 2.65614657 7.71395102 4.32457024 8 6 C7 7 7 7 4.5625 7.1875 C2 7 2 7 0 5 C-0.125 2.375 -0.125 2.375 0 0 Z " fill="#6E777D" transform="translate(208,76)"/>
<path d="M0 0 C0.84181413 3.15680299 1 5.72572803 1 9 C1.66 9 2.32 9 3 9 C2.43628586 12.26954202 1.50037734 13.82575883 -1 16 C-1 14.68 -1 13.36 -1 12 C-1.66 12 -2.32 12 -3 12 C-2.88541307 10.56163249 -2.75790884 9.12429034 -2.625 7.6875 C-2.55539063 6.88699219 -2.48578125 6.08648437 -2.4140625 5.26171875 C-2 3 -2 3 0 0 Z " fill="#9FAAB0" transform="translate(32,96)"/>
<path d="M0 0 C0.1875 2.875 0.1875 2.875 0 6 C-3 8 -3 8 -5.1875 7.625 C-5.785625 7.41875 -6.38375 7.2125 -7 7 C-7.1875 4.625 -7.1875 4.625 -7 2 C-4 0 -4 0 0 0 Z " fill="#8A959B" transform="translate(92,101)"/>
<path d="M0 0 C0.66 0 1.32 0 2 0 C1.67 1.32 1.34 2.64 1 4 C1.99 4 2.98 4 4 4 C3.125 8.75 3.125 8.75 2 11 C1.01 11 0.02 11 -1 11 C-1 9.68 -1 8.36 -1 7 C-1.66 7 -2.32 7 -3 7 C-2.38722388 4.03824877 -1.74627478 2.61941217 0 0 Z " fill="#949FA5" transform="translate(41,94)"/>
<path d="M0 0 C2.625 0.375 2.625 0.375 5 1 C4.125 5.875 4.125 5.875 3 7 C1.00041636 7.04080783 -1.00045254 7.04254356 -3 7 C-2.25 2.25 -2.25 2.25 0 0 Z " fill="#6B747B" transform="translate(113,76)"/>
<path d="M0 0 C0.433125 0.53625 0.86625 1.0725 1.3125 1.625 C2.3025 1.955 3.2925 2.285 4.3125 2.625 C4.3125 3.615 4.3125 4.605 4.3125 5.625 C2.0025 5.955 -0.3075 6.285 -2.6875 6.625 C-3.0175 5.635 -3.3475 4.645 -3.6875 3.625 C-4.3475 3.295 -5.0075 2.965 -5.6875 2.625 C-5.3575 2.295 -5.0275 1.965 -4.6875 1.625 C-5.6775 0.965 -6.6675 0.305 -7.6875 -0.375 C-2.12805944 -1.73397436 -2.12805944 -1.73397436 0 0 Z " fill="#A9B0B8" transform="translate(130.6875,36.375)"/>
<path d="M0 0 C1.32 0.99 2.64 1.98 4 3 C3.34 3.66 2.68 4.32 2 5 C2 5.99 2 6.98 2 8 C-2.05431692 9.15837626 -4.21812119 8.83691257 -8 7 C-8 6.34 -8 5.68 -8 5 C-5 4 -5 4 -2 5 C-1.855625 4.360625 -1.71125 3.72125 -1.5625 3.0625 C-1 1 -1 1 0 0 Z " fill="#DFE4E7" transform="translate(230,32)"/>
<path d="M0 0 C2.64 0.66 5.28 1.32 8 2 C8 2.66 8 3.32 8 4 C0.57142857 5.28571429 0.57142857 5.28571429 -3 4 C-3 4.99 -3 5.98 -3 7 C-4.32 6.67 -5.64 6.34 -7 6 C-6.67 4.35 -6.34 2.7 -6 1 C-3.03 1.495 -3.03 1.495 0 2 C0 1.34 0 0.68 0 0 Z " fill="#C2C9CF" transform="translate(208,30)"/>
<path d="M0 0 C0 0.66 0 1.32 0 2 C1.32 1.67 2.64 1.34 4 1 C3.25 2.9375 3.25 2.9375 2 5 C-0.125 5.75 -0.125 5.75 -2 6 C-2.33 5.34 -2.66 4.68 -3 4 C-3.99 4.33 -4.98 4.66 -6 5 C-8.1875 4.0625 -8.1875 4.0625 -10 3 C-7.29536552 -0.8183075 -4.37912428 -0.24787496 0 0 Z " fill="#6F7A80" transform="translate(78,53)"/>
<path d="M0 0 C-0.598125 0.433125 -1.19625 0.86625 -1.8125 1.3125 C-4.00305077 2.84377979 -4.00305077 2.84377979 -5.25 4.6875 C-8.21064886 6.90798664 -11.39288723 6.17739899 -15 6 C-15.33 5.34 -15.66 4.68 -16 4 C-14.35 4 -12.7 4 -11 4 C-11 3.01 -11 2.02 -11 1 C-3.375 -1.125 -3.375 -1.125 0 0 Z " fill="#757D84" transform="translate(117,31)"/>
<path d="M0 0 C0 0.66 0 1.32 0 2 C1.65 2.33 3.3 2.66 5 3 C5 3.33 5 3.66 5 4 C2.69 3.67 0.38 3.34 -2 3 C-2 3.99 -2 4.98 -2 6 C-4.31 5.67 -6.62 5.34 -9 5 C-9 4.34 -9 3.68 -9 3 C-8.01 3 -7.02 3 -6 3 C-6.33 2.01 -6.66 1.02 -7 0 C-3.98968256 -0.93423645 -3.13349732 -1.04449911 0 0 Z " fill="#737C82" transform="translate(197,28)"/>
<path d="M0 0 C4.75 0.75 4.75 0.75 7 3 C7 3.99 7 4.98 7 6 C4.125 6.625 4.125 6.625 1 7 C0.34 6.34 -0.32 5.68 -1 5 C-0.625 2.375 -0.625 2.375 0 0 Z " fill="#636A71" transform="translate(196,65)"/>
<path d="M0 0 C0.66 0.99 1.32 1.98 2 3 C1.34 3 0.68 3 0 3 C0.165 3.598125 0.33 4.19625 0.5 4.8125 C1.22501134 7.98442461 1.03305498 9.90083506 0 13 C-1.32 12.67 -2.64 12.34 -4 12 C-4.25 4.375 -4.25 4.375 -2 1 C-1.34 0.67 -0.68 0.34 0 0 Z " fill="#CFD6DC" transform="translate(269,56)"/>
<path d="M0 0 C1.98 0 3.96 0 6 0 C6.38218767 1.65614657 6.71395102 3.32457024 7 5 C6.67 5.33 6.34 5.66 6 6 C3.66055264 5.71269945 1.3260857 5.38063221 -1 5 C-0.67 3.35 -0.34 1.7 0 0 Z " fill="#5B6369" transform="translate(172,64)"/>
<path d="M0 0 C-0.25 3.375 -0.25 3.375 -1 7 C-3.0625 8.4375 -3.0625 8.4375 -5 9 C-6 8 -6 8 -6.25 5.0625 C-6.1675 4.051875 -6.085 3.04125 -6 2 C-3 0 -3 0 0 0 Z " fill="#A3AEB4" transform="translate(60,119)"/>
<path d="M0 0 C1.4540625 0.0309375 1.4540625 0.0309375 2.9375 0.0625 C3.5625 1.9375 3.5625 1.9375 3.9375 4.0625 C1.9375 6.0625 1.9375 6.0625 -0.6875 6.1875 C-1.47125 6.14625 -2.255 6.105 -3.0625 6.0625 C-3.44468767 4.40635343 -3.77645102 2.73792976 -4.0625 1.0625 C-3.0625 0.0625 -3.0625 0.0625 0 0 Z " fill="#596068" transform="translate(151.0625,63.9375)"/>
<path d="M0 0 C2.5625 0.1875 2.5625 0.1875 4.5625 2.1875 C4.5625 3.1775 4.5625 4.1675 4.5625 5.1875 C2.2525 5.5175 -0.0575 5.8475 -2.4375 6.1875 C-2.81968767 4.53135343 -3.15145102 2.86292976 -3.4375 1.1875 C-2.4375 0.1875 -2.4375 0.1875 0 0 Z " fill="#5B636A" transform="translate(162.4375,54.8125)"/>
<path d="M0 0 C4.875 0.875 4.875 0.875 6 2 C6.04080783 3.99958364 6.04254356 6.00045254 6 8 C4.35 7.67 2.7 7.34 1 7 C0.67 4.69 0.34 2.38 0 0 Z " fill="#919CA1" transform="translate(255,105)"/>
<path d="M0 0 C2.375 -0.125 2.375 -0.125 5 0 C7 2 7 2 7.125 4.625 C7.08375 5.40875 7.0425 6.1925 7 7 C2.25 6.25 2.25 6.25 0 4 C0 2.68 0 1.36 0 0 Z " fill="#7F8A90" transform="translate(242,92)"/>
<path d="M0 0 C1.32 0 2.64 0 4 0 C4.125 2.375 4.125 2.375 4 5 C2 7 2 7 -0.625 7.125 C-1.40875 7.08375 -2.1925 7.0425 -3 7 C-2.25 2.25 -2.25 2.25 0 0 Z " fill="#818C92" transform="translate(79,93)"/>
<path d="M0 0 C2.1875 0.3125 2.1875 0.3125 4 1 C3.67 1.66 3.34 2.32 3 3 C3.99 4.485 3.99 4.485 5 6 C4.625 8.1875 4.625 8.1875 4 10 C2.0625 9.25 2.0625 9.25 0 8 C-0.625 5.9375 -0.625 5.9375 -1 4 C-1.66 3.67 -2.32 3.34 -3 3 C-1.75 1.4375 -1.75 1.4375 0 0 Z " fill="#9DA8AE" transform="translate(284,89)"/>
<path d="M0 0 C0.94875 0.04125 1.8975 0.0825 2.875 0.125 C2.545 1.775 2.215 3.425 1.875 5.125 C-0.105 5.455 -2.085 5.785 -4.125 6.125 C-4.75 4.25 -4.75 4.25 -5.125 2.125 C-3.125 0.125 -3.125 0.125 0 0 Z " fill="#5C646C" transform="translate(128.125,65.875)"/>
<path d="M0 0 C2.375 -0.125 2.375 -0.125 5 0 C5.66 0.66 6.32 1.32 7 2 C6.625 4.125 6.625 4.125 6 6 C3.625 6.125 3.625 6.125 1 6 C0.34 5.34 -0.32 4.68 -1 4 C-0.625 1.875 -0.625 1.875 0 0 Z " fill="#5B646B" transform="translate(183,56)"/>
<path d="M0 0 C0 0.99 0 1.98 0 3 C-3.2192268 4.0730756 -3.90206442 3.79946725 -7 3 C-9.33075929 3.95865509 -9.33075929 3.95865509 -11 7 C-10.64780657 4.39376858 -10.23526531 2.39210885 -8.875 0.125 C-5.87289213 -1.67626472 -3.29820792 -0.68453372 0 0 Z " fill="#A9B0B5" transform="translate(105,139)"/>
<path d="M0 0 C0.598125 0.20625 1.19625 0.4125 1.8125 0.625 C1.4825 2.275 1.1525 3.925 0.8125 5.625 C-1.1675 5.955 -3.1475 6.285 -5.1875 6.625 C-5.375 4.25 -5.375 4.25 -5.1875 1.625 C-2.1875 -0.375 -2.1875 -0.375 0 0 Z " fill="#727A81" transform="translate(94.1875,80.375)"/>
<path d="M0 0 C1.67542976 0.28604898 3.34385343 0.61781233 5 1 C5 2.32 5 3.64 5 5 C4 6 4 6 0.9375 6.0625 C-0.5165625 6.0315625 -0.5165625 6.0315625 -2 6 C-1.125 1.125 -1.125 1.125 0 0 Z " fill="#576067" transform="translate(138,56)"/>
<path d="M0 0 C2.375 -0.125 2.375 -0.125 5 0 C5.66 0.66 6.32 1.32 7 2 C6.625 4.625 6.625 4.625 6 7 C3.5625 6.3125 3.5625 6.3125 1 5 C0.1875 2.375 0.1875 2.375 0 0 Z " fill="#71787E" transform="translate(230,80)"/>
<path d="M0 0 C0.042721 1.66611905 0.04063832 3.33382885 0 5 C-1 6 -1 6 -4.0625 6.0625 C-5.5165625 6.0315625 -5.5165625 6.0315625 -7 6 C-6.625 3.5625 -6.625 3.5625 -6 1 C-4 0 -4 0 0 0 Z " fill="#646F75" transform="translate(108,69)"/>
<path d="M0 0 C2.31 0.33 4.62 0.66 7 1 C7.33 2.32 7.66 3.64 8 5 C5.6875 5.6875 5.6875 5.6875 3 6 C1.1875 4.75 1.1875 4.75 0 3 C0 2.01 0 1.02 0 0 Z " fill="#666D73" transform="translate(217,69)"/>
<path d="M0 0 C1.32 0 2.64 0 4 0 C4.125 2.375 4.125 2.375 4 5 C3.34 5.66 2.68 6.32 2 7 C0.68 7 -0.64 7 -2 7 C-2.125 4.625 -2.125 4.625 -2 2 C-1.34 1.34 -0.68 0.68 0 0 Z " fill="#909BA1" transform="translate(67,106)"/>
<path d="M0 0 C2.625 0.375 2.625 0.375 5 1 C4.67 2.32 4.34 3.64 4 5 C2.02 5.33 0.04 5.66 -2 6 C-2 2 -2 2 0 0 Z " fill="#596168" transform="translate(116,59)"/>
<path d="M0 0 C5.86809507 0.52393706 10.54873741 1.76108858 16 4 C16 4.33 16 4.66 16 5 C14.01432292 4.70703125 12.02864583 4.4140625 10.04296875 4.12109375 C7.7974658 3.86095201 7.7974658 3.86095201 5 5 C2.875 4.25 2.875 4.25 1 3 C0.67 2.01 0.34 1.02 0 0 Z " fill="#798085" transform="translate(201,27)"/>
<path d="M0 0 C2.375 0.1875 2.375 0.1875 5 1 C6.3125 3.5625 6.3125 3.5625 7 6 C5.1875 6.6875 5.1875 6.6875 3 7 C1.25 5.8125 1.25 5.8125 0 4 C0 2.68 0 1.36 0 0 Z " fill="#72797F" transform="translate(238,73)"/>
<path d="M0 0 C1.9375 0.8125 1.9375 0.8125 4 2 C4.33 2.99 4.66 3.98 5 5 C4.34 5 3.68 5 3 5 C3 5.66 3 6.32 3 7 C1.125 6.75 1.125 6.75 -1 6 C-2.25 3.9375 -2.25 3.9375 -3 2 C-2.01 2 -1.02 2 0 2 C0 1.34 0 0.68 0 0 Z " fill="#898F93" transform="translate(257,60)"/>
<path d="M0 0 C1.423125 0.2784375 1.423125 0.2784375 2.875 0.5625 C5.89868793 1.28686632 5.89868793 1.28686632 8 0 C8 0.66 8 1.32 8 2 C9.65 2 11.3 2 13 2 C12.67 2.66 12.34 3.32 12 4 C9.625 4.75 9.625 4.75 7 5 C6.01 4.34 5.02 3.68 4 3 C4 3.66 4 4.32 4 5 C3.01 4.67 2.02 4.34 1 4 C0.3125 1.9375 0.3125 1.9375 0 0 Z " fill="#EBEEF1" transform="translate(234,42)"/>
<path d="M0 0 C0.66 0.33 1.32 0.66 2 1 C2 1.99 2 2.98 2 4 C2.66 4 3.32 4 4 4 C4.33 4.99 4.66 5.98 5 7 C-1.52307692 6.38461538 -1.52307692 6.38461538 -3.9375 4.4375 C-4.288125 3.963125 -4.63875 3.48875 -5 3 C-2.625 1.4375 -2.625 1.4375 0 0 Z " fill="#C9D0D6" transform="translate(212,24)"/>
<path d="M0 0 C4.875 0.875 4.875 0.875 6 2 C6.04063832 3.66617115 6.042721 5.33388095 6 7 C3.13275314 6.42655063 2.1385485 6.1385485 0 4 C0 2.68 0 1.36 0 0 Z " fill="#798188" transform="translate(250,85)"/>
<path d="M0 0 C-0.33 1.98 -0.66 3.96 -1 6 C-2.65 6.33 -4.3 6.66 -6 7 C-5.625 4.0625 -5.625 4.0625 -5 1 C-3 0 -3 0 0 0 Z " fill="#98A3A9" transform="translate(54,111)"/>
<path d="M0 0 C6.02536998 -0.602537 6.02536998 -0.602537 8.80078125 1.11328125 C10.25599455 2.34621853 11.63479157 3.66808933 13 5 C12.67 6.32 12.34 7.64 12 9 C11.319375 8.236875 10.63875 7.47375 9.9375 6.6875 C6.64101475 3.67156669 4.13693165 2.54120983 0 1 C0 0.67 0 0.34 0 0 Z " fill="#24282C" transform="translate(280,106)"/>
<path d="M0 0 C1.32 0 2.64 0 4 0 C3.25 4.75 3.25 4.75 1 7 C0.01 7 -0.98 7 -2 7 C-2.125 4.625 -2.125 4.625 -2 2 C-1.34 1.34 -0.68 0.68 0 0 Z " fill="#788389" transform="translate(72,86)"/>
<path d="M0 0 C1.32 0 2.64 0 4 0 C3.125 4.875 3.125 4.875 2 6 C0.33382885 6.04063832 -1.33388095 6.042721 -3 6 C-2.42655063 3.13275314 -2.1385485 2.1385485 0 0 Z " fill="#697379" transform="translate(84,74)"/>
<path d="M0 0 C2.00720923 0.28674418 4.0085944 0.61866701 6 1 C6.33 2.32 6.66 3.64 7 5 C5.02 5 3.04 5 1 5 C0.34 3.68 -0.32 2.36 -1 1 C-0.67 0.67 -0.34 0.34 0 0 Z " fill="#50575D" transform="translate(193,50)"/>
<path d="M0 0 C1.98 0 3.96 0 6 0 C6.33 1.32 6.66 2.64 7 4 C4.6875 4.625 4.6875 4.625 2 5 C1.01 4.34 0.02 3.68 -1 3 C-0.67 2.01 -0.34 1.02 0 0 Z " fill="#4C5159" transform="translate(171,49)"/>
<path d="M0 0 C4.08718695 -0.24042276 7.17679443 0.57741188 11 2 C7.25 4 7.25 4 5 4 C5.33 4.99 5.66 5.98 6 7 C5.01 7.99 4.02 8.98 3 10 C2.8046875 7.98177083 2.609375 5.96354167 2.4140625 3.9453125 C2.13625251 1.77331755 2.13625251 1.77331755 0 0 Z " fill="#B4BDC3" transform="translate(154,23)"/>
<path d="M0 0 C0.55171875 0.16371094 1.1034375 0.32742187 1.671875 0.49609375 C4.26614007 1.05760414 6.59835411 1.09739008 9.25 1.0625 C10.58804687 1.04896484 10.58804687 1.04896484 11.953125 1.03515625 C12.62859375 1.02355469 13.3040625 1.01195312 14 1 C13.67 1.99 13.34 2.98 13 4 C11.39620659 4.05416188 9.79188594 4.09286638 8.1875 4.125 C7.29417969 4.14820313 6.40085937 4.17140625 5.48046875 4.1953125 C3 4 3 4 0 2 C0 1.34 0 0.68 0 0 Z " fill="#1F2327" transform="translate(273,128)"/>
<path d="M0 0 C-0.75 4.75 -0.75 4.75 -3 7 C-3.99 7 -4.98 7 -6 7 C-5.625 4.0625 -5.625 4.0625 -5 1 C-3 0 -3 0 0 0 Z " fill="#889399" transform="translate(65,98)"/>
<path d="M0 0 C2.375 0.25 2.375 0.25 5 1 C6.3125 3.0625 6.3125 3.0625 7 5 C5.1875 5.625 5.1875 5.625 3 6 C2.01 5.34 1.02 4.68 0 4 C0 2.68 0 1.36 0 0 Z " fill="#676E73" transform="translate(226,63)"/>
<path d="M0 0 C2.375 -0.125 2.375 -0.125 5 0 C7 2 7 2 7 5 C5.02 5 3.04 5 1 5 C0.67 3.35 0.34 1.7 0 0 Z " fill="#575E63" transform="translate(205,59)"/>
<path d="M0 0 C1.4540625 0.0309375 1.4540625 0.0309375 2.9375 0.0625 C2.9375 1.3825 2.9375 2.7025 2.9375 4.0625 C0.9575 4.3925 -1.0225 4.7225 -3.0625 5.0625 C-3.625 3.125 -3.625 3.125 -4.0625 1.0625 C-3.0625 0.0625 -3.0625 0.0625 0 0 Z " fill="#4D5359" transform="translate(152.0625,48.9375)"/>
<path d="M0 0 C-0.33 0.99 -0.66 1.98 -1 3 C-5.65537393 3.83796731 -9.37078475 4.0161692 -14 3 C-9.18448679 0.42026078 -5.47161276 -0.12435484 0 0 Z " fill="#7B848B" transform="translate(150,22)"/>
<path d="M0 0 C2.86724686 0.57344937 3.8614515 0.8614515 6 3 C6 4.32 6 5.64 6 7 C3.13275314 6.42655063 2.1385485 6.1385485 0 4 C0 2.68 0 1.36 0 0 Z " fill="#848F94" transform="translate(261,97)"/>
<path d="M0 0 C2 0.75 2 0.75 4 3.75 C2.35 4.41 0.7 5.07 -1 5.75 C-2.5 4.375 -2.5 4.375 -4 2.75 C-4 2.09 -4 1.43 -4 0.75 C-2 -0.25 -2 -0.25 0 0 Z " fill="#858D92" transform="translate(271,68.25)"/>
<path d="M0 0 C1.98 0 3.96 0 6 0 C5.67 1.32 5.34 2.64 5 4 C3.02 4.33 1.04 4.66 -1 5 C-0.67 3.35 -0.34 1.7 0 0 Z " fill="#4E575D" transform="translate(127,51)"/>
<path d="M0 0 C-0.33 0.99 -0.66 1.98 -1 3 C-2.98 3.33 -4.96 3.66 -7 4 C-7 2.68 -7 1.36 -7 0 C-4.3333581 -1.33332095 -2.83319697 -0.67102033 0 0 Z " fill="#4E545C" transform="translate(145,44)"/>
<path d="M0 0 C0 0.33 0 0.66 0 1 C-1.65 1 -3.3 1 -5 1 C-5 1.66 -5 2.32 -5 3 C-7.9375 2.625 -7.9375 2.625 -11 2 C-11.33 1.34 -11.66 0.68 -12 0 C-7.22144261 -2.04795317 -4.77855739 -2.04795317 0 0 Z " fill="#6F757B" transform="translate(218,35)"/>
<path d="M0 0 C2.88575819 0.39803561 3.82189513 0.79009069 5.75 3.0625 C6.1625 3.701875 6.575 4.34125 7 5 C5.02 5.99 5.02 5.99 3 7 C1.68 5.68 0.36 4.36 -1 3 C-0.67 2.01 -0.34 1.02 0 0 Z " fill="#BCC5CB" transform="translate(253,82)"/>
<path d="M0 0 C2.4375 0.6875 2.4375 0.6875 5 2 C5.8125 4.625 5.8125 4.625 6 7 C3.13275314 6.42655063 2.1385485 6.1385485 0 4 C0 2.68 0 1.36 0 0 Z " fill="#7A8288" transform="translate(256,79)"/>
<path d="M0 0 C0.66 0.33 1.32 0.66 2 1 C1.01 2.98 0.02 4.96 -1 7 C-1.99 7 -2.98 7 -4 7 C-4.66 7.66 -5.32 8.32 -6 9 C-6.66 9 -7.32 9 -8 9 C-8 8.34 -8 7.68 -8 7 C-6.25 5.2734375 -6.25 5.2734375 -4 3.375 C-3.2575 2.74335937 -2.515 2.11171875 -1.75 1.4609375 C-1.1725 0.97882813 -0.595 0.49671875 0 0 Z " fill="#AEB9BF" transform="translate(39,94)"/>
<path d="M0 0 C1.2065625 0.0309375 1.2065625 0.0309375 2.4375 0.0625 C2.1075 1.3825 1.7775 2.7025 1.4375 4.0625 C-0.5425 4.3925 -2.5225 4.7225 -4.5625 5.0625 C-3.43829114 0.08386076 -3.43829114 0.08386076 0 0 Z " fill="#5B646B" transform="translate(97.5625,63.9375)"/>
<path d="M0 0 C0.66 0 1.32 0 2 0 C2.4726477 8.19256018 2.4726477 8.19256018 0.5 11.5625 C0.005 12.036875 -0.49 12.51125 -1 13 C-2.12758089 9.61725734 -1.81750262 8.23221777 -1.0625 4.8125 C-0.86785156 3.91144531 -0.67320312 3.01039063 -0.47265625 2.08203125 C-0.23869141 1.05142578 -0.23869141 1.05142578 0 0 Z " fill="#282D31" transform="translate(281,223)"/>
<path d="M0 0 C0.66 0.33 1.32 0.66 2 1 C1.67 2.98 1.34 4.96 1 7 C-0.32 7.33 -1.64 7.66 -3 8 C-2.25 2.25 -2.25 2.25 0 0 Z " fill="#A2ADB3" transform="translate(38,116)"/>
<path d="M0 0 C2.475 0.99 2.475 0.99 5 2 C3.95125002 4.62187494 3.35068687 5.79371361 0.875 7.25 C0.25625 7.4975 -0.3625 7.745 -1 8 C-0.67 5.36 -0.34 2.72 0 0 Z " fill="#89949A" transform="translate(57,70)"/>
<path d="M0 0 C2.125 0.375 2.125 0.375 4 1 C3.3125 2.9375 3.3125 2.9375 2 5 C-0.625 5.75 -0.625 5.75 -3 6 C-2.42655063 3.13275314 -2.1385485 2.1385485 0 0 Z " fill="#626B72" transform="translate(89,59)"/>
<path d="M0 0 C-0.33 1.32 -0.66 2.64 -1 4 C-2.98 4.33 -4.96 4.66 -7 5 C-6.625 3.0625 -6.625 3.0625 -6 1 C-4 0 -4 0 0 0 Z " fill="#535B62" transform="translate(112,54)"/>
<path d="M0 0 C2.31 0.33 4.62 0.66 7 1 C6.67 1.99 6.34 2.98 6 4 C4.02 4 2.04 4 0 4 C0 2.68 0 1.36 0 0 Z " fill="#4C5359" transform="translate(170,37)"/>
<path d="M0 0 C0.99 0.66 1.98 1.32 3 2 C3.66 2 4.32 2 5 2 C4.67 3.32 4.34 4.64 4 6 C1 6 1 6 -2 5 C-1.34 3.35 -0.68 1.7 0 0 Z " fill="#B6BFC5" transform="translate(176,193)"/>
<path d="M0 0 C1.875 0.625 1.875 0.625 4 2 C5.25 5.125 5.25 5.125 6 8 C3.23737447 7.6189482 2.15856106 7.16402868 0.1875 5.125 C-0.204375 4.42375 -0.59625 3.7225 -1 3 C-0.67 2.01 -0.34 1.02 0 0 Z " fill="#9BA4A9" transform="translate(286,115)"/>
<path d="M0 0 C0.95714735 2.87144204 1.07960729 4.09945581 0.75 7 C0.68296875 7.680625 0.6159375 8.36125 0.546875 9.0625 C-0.11805414 11.41824897 -1.1674163 12.42358391 -3 14 C-2.88512252 12.41590006 -2.75765492 10.83271037 -2.625 9.25 C-2.55539063 8.36828125 -2.48578125 7.4865625 -2.4140625 6.578125 C-2.00149945 4.00933618 -1.28839043 2.24158985 0 0 Z " fill="#A1ACB2" transform="translate(26,105)"/>
<path d="M0 0 C0.99 0 1.98 0 3 0 C2.67 1.65 2.34 3.3 2 5 C0.35 5.33 -1.3 5.66 -3 6 C-2.42655063 3.13275314 -2.1385485 2.1385485 0 0 Z " fill="#727D83" transform="translate(67,80)"/>
<path d="M0 0 C0.66 1.32 1.32 2.64 2 4 C1.01 4.33 0.02 4.66 -1 5 C-1.33 5.66 -1.66 6.32 -2 7 C-3.5 5.625 -3.5 5.625 -5 4 C-5 3.34 -5 2.68 -5 2 C-2 0 -2 0 0 0 Z " fill="#838E94" transform="translate(281,77)"/>
<path d="M0 0 C0.99 0 1.98 0 3 0 C3.33 1.65 3.66 3.3 4 5 C2.68 5.99 1.36 6.98 0 8 C-1 5 -1 5 -1 2 C-0.67 1.34 -0.34 0.68 0 0 Z " fill="#838E94" transform="translate(45,78)"/>
<path d="M0 0 C2.97 0.495 2.97 0.495 6 1 C6 2.32 6 3.64 6 5 C4.35 4.67 2.7 4.34 1 4 C0.67 2.68 0.34 1.36 0 0 Z " fill="#595F64" transform="translate(214,54)"/>
<path d="M0 0 C2.31 0.33 4.62 0.66 7 1 C7 1.99 7 2.98 7 4 C4.69 4 2.38 4 0 4 C0 2.68 0 1.36 0 0 Z " fill="#464C52" transform="translate(181,43)"/>
<path d="M0 0 C1.65 0 3.3 0 5 0 C5.33 1.32 5.66 2.64 6 4 C3.69 4 1.38 4 -1 4 C-0.67 2.68 -0.34 1.36 0 0 Z " fill="#464E54" transform="translate(160,42)"/>
<path d="M0 0 C0.99 0 1.98 0 3 0 C2.125 4.75 2.125 4.75 1 7 C0.01 7 -0.98 7 -2 7 C-1.125 2.25 -1.125 2.25 0 0 Z " fill="#909BA1" transform="translate(46,104)"/>
<path d="M0 0 C2.475 0.495 2.475 0.495 5 1 C5.33 2.65 5.66 4.3 6 6 C4.125 5.8125 4.125 5.8125 2 5 C0.75 2.4375 0.75 2.4375 0 0 Z " fill="#808A91" transform="translate(266,91)"/>
<path d="M0 0 C1.65 0 3.3 0 5 0 C5 1.65 5 3.3 5 5 C3.35 5.33 1.7 5.66 0 6 C0 4 0 2 0 0 Z " fill="#666E75" transform="translate(137,74)"/>
<path d="M0 0 C2.4375 0.75 2.4375 0.75 5 2 C5.8125 4.125 5.8125 4.125 6 6 C3.625 5.75 3.625 5.75 1 5 C-0.3125 2.9375 -0.3125 2.9375 -1 1 C-0.67 0.67 -0.34 0.34 0 0 Z " fill="#6F767B" transform="translate(245,68)"/>
<path d="M0 0 C-0.33 0.99 -0.66 1.98 -1 3 C-2.98 3 -4.96 3 -7 3 C-7 2.01 -7 1.02 -7 0 C-4.3333581 -1.33332095 -2.83319697 -0.67102033 0 0 Z " fill="#464C55" transform="translate(156,38)"/>
<path d="M0 0 C2.04379831 4.08759663 2.18594005 4.98685565 1.625 9.25 C1.51414063 10.14203125 1.40328125 11.0340625 1.2890625 11.953125 C1.19367188 12.62859375 1.09828125 13.3040625 1 14 C0.01 14.33 -0.98 14.66 -2 15 C-1.34 10.05 -0.68 5.1 0 0 Z " fill="#2F353A" transform="translate(169,219)"/>
<path d="M0 0 C3.74525799 3.74525799 3.68909949 7.98270909 4 13 C2 11.5625 2 11.5625 0 9 C-0.35442445 5.97175582 -0.23347235 3.03514061 0 0 Z " fill="#9EAAB1" transform="translate(299,104)"/>
<path d="M0 0 C1.5 1 1.5 1 3 3 C3.27345479 5.71846235 3.13491285 8.25677199 3 11 C0.9375 9.4375 0.9375 9.4375 -1 7 C-0.75 3.25 -0.75 3.25 0 0 Z " fill="#959FA5" transform="translate(293,95)"/>
<path d="M0 0 C0.66 0 1.32 0 2 0 C4 3 4 3 3.625 6.1875 C3.41875 7.115625 3.2125 8.04375 3 9 C1.68 8.01 0.36 7.02 -1 6 C-0.67 5.34 -0.34 4.68 0 4 C0 3.67 0 3.34 0 3 C0 2.01 0 1.02 0 0 Z " fill="#8C979D" transform="translate(286,86)"/>
<path d="M0 0 C0.66 0 1.32 0 2 0 C2.33 1.65 2.66 3.3 3 5 C1.68 5.99 0.36 6.98 -1 8 C-1.625 5.125 -1.625 5.125 -2 2 C-1.34 1.34 -0.68 0.68 0 0 Z " fill="#8B969C" transform="translate(38,88)"/>
<path d="M0 0 C0.66 0.33 1.32 0.66 2 1 C1 4 1 4 -1 5 C-1.99 6.485 -1.99 6.485 -3 8 C-3 6.68 -3 5.36 -3 4 C-3.99 3.67 -4.98 3.34 -6 3 C-3.375 0 -3.375 0 0 0 Z " fill="#ABB3BB" transform="translate(107,51)"/>
<path d="M0 0 C1.65 0 3.3 0 5 0 C4.67 1.32 4.34 2.64 4 4 C2.02 4 0.04 4 -2 4 C-1.34 2.68 -0.68 1.36 0 0 Z " fill="#4A5259" transform="translate(119,46)"/>
<path d="M0 0 C1.98 0 3.96 0 6 0 C6 0.99 6 1.98 6 3 C6.66 3.33 7.32 3.66 8 4 C5.03 3.67 2.06 3.34 -1 3 C-0.67 2.01 -0.34 1.02 0 0 Z " fill="#A4AAAF" transform="translate(276,108)"/>
<path d="M0 0 C1.98 0 3.96 0 6 0 C6 1.32 6 2.64 6 4 C4.1875 4.6875 4.1875 4.6875 2 5 C0.25 3.5625 0.25 3.5625 -1 2 C-0.67 1.34 -0.34 0.68 0 0 Z " fill="#929DA3" transform="translate(236,104)"/>
<path d="M0 0 C1.20483215 4.51812057 0.82734699 6.6600509 -1 11 C-1.66 10.01 -2.32 9.02 -3 8 C-1.55555556 1.55555556 -1.55555556 1.55555556 0 0 Z " fill="#95A0A6" transform="translate(32,96)"/>
<path d="M0 0 C-0.57344937 2.86724686 -0.8614515 3.8614515 -3 6 C-3.99 6 -4.98 6 -6 6 C-5.6875 4.125 -5.6875 4.125 -5 2 C-2 0 -2 0 0 0 Z " fill="#626C73" transform="translate(81,69)"/>
<path d="M0 0 C-3.32307692 3.93846154 -3.32307692 3.93846154 -6.75 4.25 C-7.4925 4.1675 -8.235 4.085 -9 4 C-9 3.01 -9 2.02 -9 1 C-5.8035914 -0.06546953 -3.34252724 -0.07427838 0 0 Z " fill="#6A737A" transform="translate(88,46)"/>
<path d="M0 0 C1.65 0 3.3 0 5 0 C5.66 1.32 6.32 2.64 7 4 C4.69 3.67 2.38 3.34 0 3 C0 2.01 0 1.02 0 0 Z " fill="#4B5055" transform="translate(202,46)"/>
<path d="M0 0 C2.31 0.33 4.62 0.66 7 1 C7 1.99 7 2.98 7 4 C5.35 4 3.7 4 2 4 C1.34 2.68 0.68 1.36 0 0 Z " fill="#454D53" transform="translate(190,39)"/>
<path d="M0 0 C2.86724686 0.57344937 3.8614515 0.8614515 6 3 C5.625 5.125 5.625 5.125 5 7 C5 6.34 5 5.68 5 5 C3.68 4.67 2.36 4.34 1 4 C0.67 2.68 0.34 1.36 0 0 Z " fill="#AEB4BA" transform="translate(170,233)"/>
<path d="M0 0 C0.66 0.99 1.32 1.98 2 3 C1.34 3 0.68 3 0 3 C0 3.66 0 4.32 0 5 C-3.3 4.34 -6.6 3.68 -10 3 C-10 2.67 -10 2.34 -10 2 C-6.7 1.34 -3.4 0.68 0 0 Z " fill="#A5ABB0" transform="translate(152,193)"/>
<path d="M0 0 C0.66 0 1.32 0 2 0 C3.32 2.64 4.64 5.28 6 8 C2 7 2 7 0.1875 4.5625 C-0.204375 3.716875 -0.59625 2.87125 -1 2 C-0.67 1.34 -0.34 0.68 0 0 Z " fill="#292C2F" transform="translate(281,118)"/>
<path d="M0 0 C1.65 0 3.3 0 5 0 C5 1.32 5 2.64 5 4 C3.35 4 1.7 4 0 4 C0 2.68 0 1.36 0 0 Z " fill="#AEB2B5" transform="translate(278,114)"/>
<path d="M0 0 C0.99 0 1.98 0 3 0 C2.67 1.65 2.34 3.3 2 5 C0.68 5.33 -0.64 5.66 -2 6 C-1.125 1.125 -1.125 1.125 0 0 Z " fill="#7E898F" transform="translate(56,92)"/>
<path d="M0 0 C0 0.99 0 1.98 0 3 C-2.31 3.33 -4.62 3.66 -7 4 C-6.67 3.01 -6.34 2.02 -6 1 C-4 0 -4 0 0 0 Z " fill="#444C54" transform="translate(135,39)"/>
<path d="M0 0 C0 3 0 3 -1 6 C-2.65 5.67 -4.3 5.34 -6 5 C-6 4.34 -6 3.68 -6 3 C-4.02 2.01 -2.04 1.02 0 0 Z " fill="#A0A7A9" transform="translate(265,183)"/>
<path d="M0 0 C0.99 0 1.98 0 3 0 C2.1875 2.9375 2.1875 2.9375 1 6 C0.01 6.33 -0.98 6.66 -2 7 C-1.125 1.125 -1.125 1.125 0 0 Z " fill="#9CA7AD" transform="translate(34,111)"/>
<path d="M0 0 C0.99 0.33 1.98 0.66 3 1 C2.690625 1.598125 2.38125 2.19625 2.0625 2.8125 C0.89790296 5.08956772 0.89790296 5.08956772 0 8 C-0.66 7.34 -1.32 6.68 -2 6 C-1.67 5.34 -1.34 4.68 -1 4 C-1.66 4 -2.32 4 -3 4 C-2.67 3.01 -2.34 2.02 -2 1 C-1.34 0.67 -0.68 0.34 0 0 Z " fill="#7B838B" transform="translate(89,47)"/>
<path d="M0 0 C2.97 0.495 2.97 0.495 6 1 C6.33 1.99 6.66 2.98 7 4 C5.35 4 3.7 4 2 4 C1.34 2.68 0.68 1.36 0 0 Z " fill="#5B6064" transform="translate(221,50)"/>
<path d="M0 0 C1.98 0.99 1.98 0.99 4 2 C3.6875 3.9375 3.6875 3.9375 3 6 C2.01 6.33 1.02 6.66 0 7 C0 4.69 0 2.38 0 0 Z " fill="#1E1F22" transform="translate(83,233)"/>
<path d="M0 0 C1.98 0.99 1.98 0.99 4 2 C3.67 3.32 3.34 4.64 3 6 C2.01 6 1.02 6 0 6 C0 4.02 0 2.04 0 0 Z " fill="#AFB7BE" transform="translate(278,120)"/>
<path d="M0 0 C2.475 0.495 2.475 0.495 5 1 C5.33 2.65 5.66 4.3 6 6 C4 5 2 4 0 3 C0 2.01 0 1.02 0 0 Z " fill="#B0B9BD" transform="translate(282,108)"/>
<path d="M0 0 C0.99 0 1.98 0 3 0 C2.25 2.4375 2.25 2.4375 1 5 C-1.125 5.8125 -1.125 5.8125 -3 6 C-1.125 1.125 -1.125 1.125 0 0 Z " fill="#707B81" transform="translate(62,76)"/>
<path d="M0 0 C2.475 0.495 2.475 0.495 5 1 C5.33 2.32 5.66 3.64 6 5 C3.5625 4.1875 3.5625 4.1875 1 3 C0.67 2.01 0.34 1.02 0 0 Z " fill="#61666C" transform="translate(233,59)"/>
<path d="M0 0 C1.65 0.33 3.3 0.66 5 1 C5 1.99 5 2.98 5 4 C3.02 4.33 1.04 4.66 -1 5 C-0.34 4.01 0.32 3.02 1 2 C0.67 1.34 0.34 0.68 0 0 Z " fill="#4F585E" transform="translate(162,56)"/>
<path d="M0 0 C6.52307692 -0.36923077 6.52307692 -0.36923077 8.9375 1.5 C9.288125 1.995 9.63875 2.49 10 3 C8.35 2.67 6.7 2.34 5 2 C4.67 2.66 4.34 3.32 4 4 C2.68 2.68 1.36 1.36 0 0 Z " fill="#83868A" transform="translate(248,53)"/>
<path d="M0 0 C-0.33 0.99 -0.66 1.98 -1 3 C-2.98 3.33 -4.96 3.66 -7 4 C-6.67 3.01 -6.34 2.02 -6 1 C-4 0 -4 0 0 0 Z " fill="#4A535A" transform="translate(116,43)"/>
<path d="M0 0 C0 3.51716303 -0.82445585 4.37121748 -3 7 C-4.65 6.67 -6.3 6.34 -8 6 C-6.60624928 3.21249856 -4.83755139 3.10733713 -2 2 C-1.34 1.34 -0.68 0.68 0 0 Z " fill="#2D2F34" transform="translate(105,234)"/>
<path d="M0 0 C2.0625 0.4375 2.0625 0.4375 4 1 C2.71034824 2.37562854 1.37310707 3.70766393 0 5 C-0.66 5 -1.32 5 -2 5 C-1.125 1.125 -1.125 1.125 0 0 Z " fill="#646D74" transform="translate(72,66)"/>
<path d="M0 0 C0.66 0 1.32 0 2 0 C1.34 2.31 0.68 4.62 0 7 C-0.99 6.67 -1.98 6.34 -3 6 C-3.33 5.01 -3.66 4.02 -4 3 C-3.34 3 -2.68 3 -2 3 C-1.67 2.34 -1.34 1.68 -1 1 C-0.67 0.67 -0.34 0.34 0 0 Z " fill="#E3E6EA" transform="translate(258,48)"/>
<path d="M0 0 C1.98 0 3.96 0 6 0 C6.33 0.99 6.66 1.98 7 3 C5.02 3 3.04 3 1 3 C0.67 2.01 0.34 1.02 0 0 Z " fill="#414A4F" transform="translate(179,34)"/>
<path d="M0 0 C0 3 0 3 -2.3125 5.625 C-5 8 -5 8 -8 9 C-6.4169423 4.7257442 -3.49431596 2.73468206 0 0 Z " fill="#A0A6AB" transform="translate(14,4)"/>
<path d="M0 0 C2.31 0.33 4.62 0.66 7 1 C7 1.66 7 2.32 7 3 C4.69 3 2.38 3 0 3 C0 2.01 0 1.02 0 0 Z " fill="#222024" transform="translate(168,237)"/>
<path d="M0 0 C-0.66 1.32 -1.32 2.64 -2 4 C-2.66 4 -3.32 4 -4 4 C-4.33 5.32 -4.66 6.64 -5 8 C-5.66 8 -6.32 8 -7 8 C-4.18918919 0 -4.18918919 0 0 0 Z " fill="#27272A" transform="translate(92,138)"/>
<path d="M0 0 C2 2 2 2 2.1953125 3.9453125 C2.13020833 5.96354167 2.06510417 7.98177083 2 10 C0.4375 8.9375 0.4375 8.9375 -1 7 C-0.6875 3.3125 -0.6875 3.3125 0 0 Z " fill="#4C5154" transform="translate(293,113)"/>
<path d="M0 0 C0.33 0.66 0.66 1.32 1 2 C2.98 2 4.96 2 7 2 C7 2.33 7 2.66 7 3 C5.02 3 3.04 3 1 3 C0.67 4.32 0.34 5.64 0 7 C-0.33 6.01 -0.66 5.02 -1 4 C-1.66 3.67 -2.32 3.34 -3 3 C-2.01 2.01 -1.02 1.02 0 0 Z " fill="#7D8287" transform="translate(274,109)"/>
<path d="M0 0 C1.9375 0.75 1.9375 0.75 4 2 C4.75 4.125 4.75 4.125 5 6 C3.0625 5.25 3.0625 5.25 1 4 C0.25 1.875 0.25 1.875 0 0 Z " fill="#778288" transform="translate(271,86)"/>
<path d="M0 0 C1.9375 0.75 1.9375 0.75 4 2 C4.75 4.125 4.75 4.125 5 6 C3.0625 5.25 3.0625 5.25 1 4 C0.25 1.875 0.25 1.875 0 0 Z " fill="#6F767C" transform="translate(261,75)"/>
<path d="M0 0 C1.98 0.495 1.98 0.495 4 1 C3.67 2.32 3.34 3.64 3 5 C1.68 5 0.36 5 -1 5 C-0.67 3.35 -0.34 1.7 0 0 Z " fill="#626A70" transform="translate(160,73)"/>
<path d="M0 0 C1.875 0.25 1.875 0.25 4 1 C5.25 3.0625 5.25 3.0625 6 5 C4.125 4.75 4.125 4.75 2 4 C0.75 1.9375 0.75 1.9375 0 0 Z " fill="#6B7074" transform="translate(250,65)"/>
<path d="M0 0 C2 0 2 0 3.625 1.5 C4.07875 1.995 4.5325 2.49 5 3 C4.67 3.99 4.34 4.98 4 6 C2.68 5.67 1.36 5.34 0 5 C0 3.35 0 1.7 0 0 Z " fill="#C6CDD3" transform="translate(265,63)"/>
<path d="M0 0 C0.66 0.99 1.32 1.98 2 3 C1.34 4.32 0.68 5.64 0 7 C-0.66 6.67 -1.32 6.34 -2 6 C-2.625 3.9375 -2.625 3.9375 -3 2 C-2.01 2 -1.02 2 0 2 C0 1.34 0 0.68 0 0 Z " fill="#BFC5CB" transform="translate(213,54)"/>
<path d="M0 0 C0.99 0 1.98 0 3 0 C2.3125 1.9375 2.3125 1.9375 1 4 C-1.625 4.75 -1.625 4.75 -4 5 C-2.1875 2.5 -2.1875 2.5 0 0 Z " fill="#5B656C" transform="translate(84,56)"/>
<path d="M0 0 C-0.33 0.99 -0.66 1.98 -1 3 C-2.65 3.33 -4.3 3.66 -6 4 C-6 3.01 -6 2.02 -6 1 C-4 0 -4 0 0 0 Z " fill="#495259" transform="translate(104,51)"/>
<path d="M0 0 C1.98 0 3.96 0 6 0 C5.67 0.99 5.34 1.98 5 3 C3.35 3 1.7 3 0 3 C0 2.01 0 1.02 0 0 Z " fill="#383E44" transform="translate(160,33)"/>
<path d="M0 0 C1.98 0 3.96 0 6 0 C6 0.66 6 1.32 6 2 C3.69 2.33 1.38 2.66 -1 3 C-0.67 2.01 -0.34 1.02 0 0 Z " fill="#384048" transform="translate(140,34)"/>
<path d="M0 0 C1.98 0.99 1.98 0.99 4 2 C4 3.32 4 4.64 4 6 C3.01 5.67 2.02 5.34 1 5 C0.67 3.35 0.34 1.7 0 0 Z " fill="#889299" transform="translate(281,98)"/>
<path d="M0 0 C0.66 0 1.32 0 2 0 C1.1875 2.4375 1.1875 2.4375 0 5 C-0.99 5.33 -1.98 5.66 -3 6 C-2.42655063 3.13275314 -2.1385485 2.1385485 0 0 Z " fill="#778288" transform="translate(53,87)"/>
<path d="M0 0 C2.475 0.495 2.475 0.495 5 1 C5 1.99 5 2.98 5 4 C3.35 4 1.7 4 0 4 C0 2.68 0 1.36 0 0 Z " fill="#4D575D" transform="translate(185,57)"/>
<path d="M0 0 C2.475 0.495 2.475 0.495 5 1 C4.67 2.32 4.34 3.64 4 5 C2.68 4.67 1.36 4.34 0 4 C0 2.68 0 1.36 0 0 Z " fill="#D7DCE0" transform="translate(217,43)"/>
<path d="M0 0 C-1.0625 1.5 -1.0625 1.5 -3 3 C-6.6875 3.1875 -6.6875 3.1875 -10 3 C-6.88378718 -0.11621282 -4.21175599 -0.11383124 0 0 Z " fill="#626C73" transform="translate(97,40)"/>
<path d="M0 0 C1.98 0 3.96 0 6 0 C5.01 1.485 5.01 1.485 4 3 C1.375 3.1875 1.375 3.1875 -1 3 C-0.67 2.01 -0.34 1.02 0 0 Z " fill="#434A52" transform="translate(121,37)"/>
</svg>
